<svg width="20" height="20" viewBox="0 0 20 20" fill="none" xmlns="http://www.w3.org/2000/svg">
<path fill-rule="evenodd" clip-rule="evenodd" d="M19.8221 13.4804C19.4315 13.9594 18.4743 14.3011 18.4743 14.3011L11.354 16.7863V14.9535L16.5941 13.1392C17.1887 12.9322 17.28 12.6395 16.7967 12.4859C16.3142 12.3318 15.4407 12.376 14.8455 12.5839L11.354 13.7788V11.8767L11.5552 11.8105C11.5552 11.8105 12.5642 11.4635 13.9829 11.3108C15.4016 11.1589 17.1387 11.3315 18.5025 11.8339C20.0393 12.3058 20.2124 13.0015 19.8221 13.4804ZM12.0318 10.3595V5.67231C12.0318 5.12184 11.9273 4.61507 11.3958 4.4716C10.9888 4.34491 10.7362 4.71218 10.7362 5.26221V17L7.47857 15.9953V2C8.86365 2.24985 10.8815 2.84049 11.9664 3.19585C14.7252 4.11624 15.6605 5.26177 15.6605 7.84285C15.6605 10.3586 14.0624 11.3121 12.0318 10.3595ZM1.50121 14.7619C-0.0764855 14.3302 -0.339057 13.4305 0.380061 12.9123C1.04467 12.4338 2.1749 12.0736 2.1749 12.0736L6.84576 10.4597V12.2996L3.48458 13.4685C2.89084 13.6755 2.79953 13.9687 3.28197 14.1223C3.76487 14.2759 4.63889 14.2322 5.23354 14.0247L6.84576 13.4562V15.1023C6.74355 15.1199 6.62953 15.1376 6.52413 15.1548C4.91146 15.4108 3.19384 15.304 1.50121 14.7619ZM18.7846 15.4907C18.9885 15.4907 19.1798 15.5675 19.3238 15.7092C19.4678 15.8487 19.5473 16.035 19.5473 16.2328C19.5473 16.4314 19.4678 16.6168 19.3238 16.7563C19.1798 16.8971 18.9885 16.974 18.7846 16.974C18.5806 16.974 18.3898 16.8971 18.2453 16.7563C18.1013 16.6168 18.0223 16.4314 18.0223 16.2328C18.0223 15.824 18.3639 15.4907 18.7846 15.4907ZM18.1504 16.2328C18.1504 16.3974 18.2163 16.5524 18.3362 16.668C18.4557 16.7855 18.6156 16.849 18.7846 16.849C19.1348 16.849 19.4187 16.5727 19.4187 16.2328C19.4187 16.0677 19.3533 15.9127 19.2329 15.7966C19.1135 15.6792 18.9536 15.6161 18.7846 15.6161C18.6156 15.6161 18.4557 15.6792 18.3362 15.7966C18.2163 15.9127 18.1504 16.0677 18.1504 16.2328ZM19.0149 15.8333C19.0985 15.869 19.1407 15.9379 19.1407 16.0359C19.1407 16.0862 19.1298 16.1286 19.1076 16.1617C19.0917 16.1855 19.0689 16.205 19.0435 16.2217C19.0635 16.2332 19.0812 16.2469 19.0944 16.2628C19.1126 16.2858 19.123 16.3224 19.1244 16.3723L19.1285 16.4778C19.1298 16.506 19.1316 16.5277 19.1362 16.5409C19.1407 16.5603 19.1494 16.5727 19.1603 16.5767L19.1716 16.582V16.5939V16.612V16.6301H19.153H19.0181H19.0072L19.0017 16.6208C18.9972 16.612 18.994 16.6018 18.9908 16.5886C18.9885 16.5767 18.9863 16.5559 18.9849 16.5241L18.9781 16.393C18.9763 16.3476 18.9604 16.3193 18.9304 16.3043C18.9118 16.2959 18.8809 16.2919 18.8391 16.2919H18.6079V16.612V16.6301H18.5888H18.4788H18.4602V16.612V15.8231V15.805H18.4788H18.8545C18.919 15.805 18.9731 15.8143 19.0149 15.8333ZM18.6079 16.1657H18.8432C18.8904 16.1657 18.9281 16.1573 18.9549 16.1401C18.9795 16.1229 18.9913 16.0915 18.9913 16.0461C18.9913 15.9966 18.9745 15.9644 18.939 15.9472C18.9195 15.9379 18.8922 15.9326 18.8577 15.9326H18.6079V16.1657Z" fill="white"/>
</svg>
