<svg width="216" height="250" viewBox="0 0 216 250" fill="none" xmlns="http://www.w3.org/2000/svg">
<path d="M216 107.815C216 167.359 167.647 215.629 108 215.629C48.3532 215.629 0 167.359 0 107.815C0 48.2702 48.3532 0 108 0C167.647 0 216 48.2702 216 107.815Z" fill="url(#paint0_linear_226_36405)"/>
<path fill-rule="evenodd" clip-rule="evenodd" d="M145.632 76.9813C143.311 78.7769 140.644 80.5146 137.708 80.5146H105.226H101.064H68.5816C65.6455 80.5146 62.9789 78.7769 60.6582 76.9813C58.9413 75.6529 56.586 74.4469 53.5775 73.9864C52.7446 73.8589 51.8617 73.7886 50.9284 73.7886C43.3587 73.7886 34.6109 75.226 27.4511 82.7738C25.8015 84.5128 24.2362 86.5762 22.789 89.0211C19.4078 94.7333 12.3474 112.411 7.38259 132.644C5.83393 138.956 4.48918 145.516 3.52361 152.039C1.39368 166.428 1.10875 180.638 4.55003 191.603C5.97899 196.156 8.05044 200.149 10.8991 203.364C13.178 205.936 15.4827 207.531 17.7861 208.307C33.91 213.74 49.9706 179.056 56.6752 158.458C56.6784 158.46 56.6816 158.462 56.6847 158.465C61.3055 161.89 65.9946 164.59 74.1138 164.59C82.2386 164.59 93.534 158.458 94.7229 150.149H101.064H105.226H111.567C112.756 158.458 124.051 164.59 132.176 164.59C140.29 164.59 144.978 161.894 149.596 158.472C149.602 158.467 149.608 158.462 149.615 158.458C150.572 161.4 151.721 164.63 153.034 167.99C162.222 191.507 179.439 221.366 195.391 203.364C218.18 177.647 191.229 102.078 183.501 89.0211C176.659 77.4615 167.175 74.4305 158.627 73.8875C157.52 73.8172 156.429 73.7886 155.362 73.7886C154.285 73.7886 153.276 73.8821 152.334 74.0489C149.506 74.5493 147.276 75.7091 145.632 76.9813Z" fill="#E1EFFE"/>
<path fill-rule="evenodd" clip-rule="evenodd" d="M145.632 76.9813C143.311 78.7769 140.644 80.5146 137.708 80.5146H105.226H101.064H68.5816C65.6455 80.5146 62.9789 78.7769 60.6582 76.9813C58.9413 75.6529 56.586 74.4469 53.5775 73.9864C52.7446 73.8589 51.8617 73.7886 50.9284 73.7886C43.3587 73.7886 34.6109 75.226 27.4511 82.7738C25.8015 84.5128 24.2362 86.5762 22.789 89.0211C19.4078 94.7333 12.3474 112.411 7.38259 132.644C5.83393 138.956 4.48918 145.516 3.52361 152.039C1.39368 166.428 1.10875 180.638 4.55003 191.603C5.97899 196.156 8.05044 200.149 10.8991 203.364C13.178 205.936 15.4827 207.531 17.7861 208.307C33.91 213.74 49.9706 179.056 56.6752 158.458C56.6784 158.46 56.6816 158.462 56.6847 158.465C61.3055 161.89 65.9946 164.59 74.1138 164.59C82.2386 164.59 93.534 158.458 94.7229 150.149H101.064H105.226H111.567C112.756 158.458 124.051 164.59 132.176 164.59C140.29 164.59 144.978 161.894 149.596 158.472C149.602 158.467 149.608 158.462 149.615 158.458C150.572 161.4 151.721 164.63 153.034 167.99C162.222 191.507 179.439 221.366 195.391 203.364C218.18 177.647 191.229 102.078 183.501 89.0211C176.659 77.4615 167.175 74.4305 158.627 73.8875C157.52 73.8172 156.429 73.7886 155.362 73.7886C154.285 73.7886 153.276 73.8821 152.334 74.0489C149.506 74.5493 147.276 75.7091 145.632 76.9813Z" fill="url(#paint1_linear_226_36405)"/>
<path fill-rule="evenodd" clip-rule="evenodd" d="M145.632 76.9813C143.311 78.7769 140.644 80.5146 137.708 80.5146H105.226H101.064H68.5816C65.6455 80.5146 62.9789 78.7769 60.6582 76.9813C58.9413 75.6529 56.586 74.4469 53.5775 73.9864C52.7446 73.8589 51.8617 73.7886 50.9284 73.7886C43.3587 73.7886 34.6109 75.226 27.4511 82.7738C25.8015 84.5128 24.2362 86.5762 22.789 89.0211C19.4078 94.7333 12.3474 112.411 7.38259 132.644C5.83393 138.956 4.48918 145.516 3.52361 152.039C1.39368 166.428 1.10875 180.638 4.55003 191.603C5.97899 196.156 8.05044 200.149 10.8991 203.364C13.178 205.936 15.4827 207.531 17.7861 208.307C33.91 213.74 49.9706 179.056 56.6752 158.458C56.6784 158.46 56.6816 158.462 56.6847 158.465C61.3055 161.89 65.9946 164.59 74.1138 164.59C82.2386 164.59 93.534 158.458 94.7229 150.149H101.064H105.226H111.567C112.756 158.458 124.051 164.59 132.176 164.59C140.29 164.59 144.978 161.894 149.596 158.472C149.602 158.467 149.608 158.462 149.615 158.458C150.572 161.4 151.721 164.63 153.034 167.99C162.222 191.507 179.439 221.366 195.391 203.364C218.18 177.647 191.229 102.078 183.501 89.0211C176.659 77.4615 167.175 74.4305 158.627 73.8875C157.52 73.8172 156.429 73.7886 155.362 73.7886C154.285 73.7886 153.276 73.8821 152.334 74.0489C149.506 74.5493 147.276 75.7091 145.632 76.9813Z" fill="url(#paint2_linear_226_36405)"/>
<path d="M120.088 132.542C120.088 139.316 126.299 144.808 133.96 144.808C141.621 144.808 147.831 139.316 147.831 132.542C147.831 125.769 141.621 120.277 133.96 120.277C126.299 120.277 120.088 125.769 120.088 132.542Z" fill="#E1EFFE"/>
<path d="M120.088 132.542C120.088 139.316 126.299 144.808 133.96 144.808C141.621 144.808 147.831 139.316 147.831 132.542C147.831 125.769 141.621 120.277 133.96 120.277C126.299 120.277 120.088 125.769 120.088 132.542Z" fill="url(#paint3_linear_226_36405)"/>
<path d="M122.466 127.993C122.466 134.22 128.144 139.269 135.149 139.269C142.153 139.269 147.831 134.22 147.831 127.993C147.831 121.765 142.153 116.717 135.149 116.717C128.144 116.717 122.466 121.765 122.466 127.993Z" fill="#E1EFFE"/>
<path d="M122.466 127.993C122.466 134.22 128.144 139.269 135.149 139.269C142.153 139.269 147.831 134.22 147.831 127.993C147.831 121.765 142.153 116.717 135.149 116.717C128.144 116.717 122.466 121.765 122.466 127.993Z" fill="url(#paint4_linear_226_36405)"/>
<path d="M122.466 127.201C122.466 133.429 128.144 138.477 135.149 138.477C142.153 138.477 147.831 133.429 147.831 127.201C147.831 120.974 142.153 115.925 135.149 115.925C128.144 115.925 122.466 120.974 122.466 127.201Z" fill="white"/>
<path d="M153.38 109.796C153.38 112.963 156.308 115.53 159.919 115.53C163.531 115.53 166.459 112.963 166.459 109.796C166.459 106.63 163.531 104.062 159.919 104.062C156.308 104.062 153.38 106.63 153.38 109.796Z" fill="url(#paint5_linear_226_36405)" fill-opacity="0.4"/>
<path d="M153.38 108.998C153.38 112.165 156.308 114.732 159.919 114.732C163.531 114.732 166.459 112.165 166.459 108.998C166.459 105.831 163.531 103.264 159.919 103.264C156.308 103.264 153.38 105.831 153.38 108.998Z" fill="white"/>
<path d="M140.301 99.5092C140.301 102.676 143.229 105.243 146.84 105.243C150.452 105.243 153.38 102.676 153.38 99.5092C153.38 96.3426 150.452 93.7756 146.84 93.7756C143.229 93.7756 140.301 96.3426 140.301 99.5092Z" fill="url(#paint6_linear_226_36405)" fill-opacity="0.4"/>
<path d="M140.301 98.7111C140.301 101.878 143.229 104.445 146.84 104.445C150.452 104.445 153.38 101.878 153.38 98.7111C153.38 95.5445 150.452 92.9775 146.84 92.9775C143.229 92.9775 140.301 95.5445 140.301 98.7111Z" fill="white"/>
<path d="M166.459 99.5092C166.459 102.676 169.387 105.243 172.998 105.243C176.61 105.243 179.538 102.676 179.538 99.5092C179.538 96.3426 176.61 93.7756 172.998 93.7756C169.387 93.7756 166.459 96.3426 166.459 99.5092Z" fill="url(#paint7_linear_226_36405)" fill-opacity="0.4"/>
<path d="M166.459 98.7111C166.459 101.878 169.387 104.445 172.998 104.445C176.61 104.445 179.538 101.878 179.538 98.7111C179.538 95.5445 176.61 92.9775 172.998 92.9775C169.387 92.9775 166.459 95.5445 166.459 98.7111Z" fill="white"/>
<path d="M153.38 88.8266C153.38 91.9931 156.308 94.5602 159.919 94.5602C163.531 94.5602 166.459 91.9931 166.459 88.8266C166.459 85.66 163.531 83.093 159.919 83.093C156.308 83.093 153.38 85.66 153.38 88.8266Z" fill="url(#paint8_linear_226_36405)" fill-opacity="0.4"/>
<path d="M153.38 88.0285C153.38 91.195 156.308 93.7621 159.919 93.7621C163.531 93.7621 166.459 91.195 166.459 88.0285C166.459 84.8619 163.531 82.2949 159.919 82.2949C156.308 82.2949 153.38 84.8619 153.38 88.0285Z" fill="white"/>
<path d="M42.8036 86.2515C42.8036 85.8145 43.1585 85.4602 43.5963 85.4602H51.9192C52.357 85.4602 52.7119 85.8145 52.7119 86.2515V92.8366C52.7119 93.086 52.5942 93.3208 52.3942 93.4702L48.2327 96.5792C47.9512 96.7896 47.5644 96.7896 47.2828 96.5792L43.1214 93.4702C42.9214 93.3208 42.8036 93.086 42.8036 92.8366V86.2515Z" fill="url(#paint9_linear_226_36405)" fill-opacity="0.4"/>
<path d="M42.8036 85.4602C42.8036 85.0232 43.1585 84.6689 43.5963 84.6689H51.9192C52.357 84.6689 52.7119 85.0232 52.7119 85.4602V92.0454C52.7119 92.2947 52.5942 92.5295 52.3942 92.6789L48.2327 95.788C47.9512 95.9983 47.5644 95.9983 47.2828 95.788L43.1214 92.6789C42.9214 92.5295 42.8036 92.2947 42.8036 92.0454V85.4602Z" fill="white"/>
<path d="M52.7119 113.156C52.7119 113.593 52.357 113.947 51.9193 113.947L43.5963 113.947C43.1585 113.947 42.8037 113.593 42.8037 113.156L42.8037 106.571C42.8037 106.321 42.9214 106.086 43.1214 105.937L47.2828 102.828C47.5644 102.618 47.9512 102.618 48.2327 102.828L52.3942 105.937C52.5942 106.086 52.7119 106.321 52.7119 106.571L52.7119 113.156Z" fill="url(#paint10_linear_226_36405)" fill-opacity="0.4"/>
<path d="M52.7119 112.364C52.7119 112.801 52.357 113.156 51.9193 113.156L43.5963 113.156C43.1585 113.156 42.8037 112.801 42.8037 112.364L42.8037 105.779C42.8037 105.53 42.9214 105.295 43.1214 105.146L47.2828 102.037C47.5644 101.826 47.9512 101.826 48.2327 102.037L52.3942 105.146C52.5942 105.295 52.7119 105.53 52.7119 105.779L52.7119 112.364Z" fill="white"/>
<path d="M61.4312 94.5601C61.8689 94.5601 62.2238 94.9143 62.2238 95.3514L62.2238 103.66C62.2238 104.097 61.8689 104.451 61.4312 104.451L54.8347 104.451C54.5849 104.451 54.3497 104.334 54.2001 104.134L51.0857 99.9798C50.875 99.6987 50.9284 99.11 50.9284 98.7144L54.2001 94.8772C54.3497 94.6776 54.5849 94.5601 54.8347 94.5601L61.4312 94.5601Z" fill="url(#paint11_linear_226_36405)" fill-opacity="0.4"/>
<path d="M61.4312 93.7688C61.8689 93.7688 62.2238 94.1231 62.2238 94.5601L62.2238 102.869C62.2238 103.306 61.8689 103.66 61.4312 103.66L54.8347 103.66C54.5849 103.66 54.3497 103.543 54.2001 103.343L51.0857 99.1885C50.875 98.9075 50.875 98.5214 51.0857 98.2403L54.2001 94.086C54.3497 93.8863 54.5849 93.7688 54.8347 93.7688L61.4312 93.7688Z" fill="white"/>
<path d="M34.4807 104.451C34.0429 104.451 33.688 104.097 33.688 103.66L33.6881 95.3515C33.6881 94.9145 34.0429 94.5602 34.4807 94.5602L41.0772 94.5602C41.327 94.5602 41.5621 94.6777 41.7118 94.8774L44.9835 98.7145C44.9835 99.1101 45.0369 99.6988 44.8262 99.9799L41.7118 104.134C41.5621 104.334 41.327 104.451 41.0772 104.451L34.4807 104.451Z" fill="url(#paint12_linear_226_36405)" fill-opacity="0.4"/>
<path d="M34.4807 103.66C34.0429 103.66 33.688 103.306 33.688 102.869L33.6881 94.5602C33.6881 94.1232 34.0429 93.7689 34.4807 93.7689L41.0772 93.7689C41.327 93.7689 41.5621 93.8865 41.7118 94.0861L44.8262 98.2404C45.0369 98.5215 45.0369 98.9076 44.8262 99.1887L41.7118 103.343C41.5621 103.543 41.327 103.66 41.0772 103.66L34.4807 103.66Z" fill="white"/>
<path fill-rule="evenodd" clip-rule="evenodd" d="M56.6763 158.458L56.6763 158.458C54.6947 156.677 50.8106 151.692 51.1277 145.995C46.7682 155.688 36.0278 177.765 27.9427 188.527C20.8409 197.98 13.2499 200.302 8.12628 199.611C8.95475 200.956 9.87713 202.21 10.8997 203.364C13.1786 205.936 15.4833 207.531 17.7867 208.307C33.9106 213.74 49.9712 179.056 56.6758 158.458L56.6763 158.458Z" fill="#00BBE5"/>
<path fill-rule="evenodd" clip-rule="evenodd" d="M198.148 199.638C193.029 200.236 185.55 197.848 178.547 188.527C170.461 177.765 159.721 155.688 155.361 145.995C155.679 151.692 151.795 156.677 149.813 158.458L149.855 159.187C150.762 161.931 151.829 164.906 153.034 167.99C162.222 191.507 179.439 221.366 195.391 203.364C196.407 202.218 197.324 200.972 198.148 199.638Z" fill="#00BBE5"/>
<path d="M86.0037 132.542C86.0037 139.316 79.7932 144.808 72.1321 144.808C64.4711 144.808 58.2606 139.316 58.2606 132.542C58.2606 125.769 64.4711 120.277 72.1321 120.277C79.7932 120.277 86.0037 125.769 86.0037 132.542Z" fill="#E1EFFE"/>
<path d="M86.0037 132.542C86.0037 139.316 79.7932 144.808 72.1321 144.808C64.4711 144.808 58.2606 139.316 58.2606 132.542C58.2606 125.769 64.4711 120.277 72.1321 120.277C79.7932 120.277 86.0037 125.769 86.0037 132.542Z" fill="url(#paint13_linear_226_36405)"/>
<path d="M83.6257 127.993C83.6257 134.22 77.9475 139.269 70.9431 139.269C63.9387 139.269 58.2606 134.22 58.2606 127.993C58.2606 121.765 63.9387 116.717 70.9431 116.717C77.9475 116.717 83.6257 121.765 83.6257 127.993Z" fill="#E1EFFE"/>
<path d="M83.6257 127.993C83.6257 134.22 77.9475 139.269 70.9431 139.269C63.9387 139.269 58.2606 134.22 58.2606 127.993C58.2606 121.765 63.9387 116.717 70.9431 116.717C77.9475 116.717 83.6257 121.765 83.6257 127.993Z" fill="url(#paint14_linear_226_36405)"/>
<path d="M83.6257 127.201C83.6257 133.429 77.9475 138.477 70.9431 138.477C63.9387 138.477 58.2606 133.429 58.2606 127.201C58.2606 120.974 63.9387 115.925 70.9431 115.925C77.9475 115.925 83.6257 120.974 83.6257 127.201Z" fill="white"/>
<path fill-rule="evenodd" clip-rule="evenodd" d="M94.7234 150.149C94.8819 145.876 94.4587 136.763 94.1285 132.74C93.9303 139.071 89.373 147.946 79.6629 152.127C71.5777 155.609 62.9509 152.655 59.6482 150.743C56.6364 149.002 52.8447 145.269 51.3252 143.621C50.6885 147.631 51.0397 155.441 55.5951 161.662C55.978 160.563 56.3384 159.493 56.6753 158.458L56.6847 158.465C61.3056 161.89 65.9946 164.59 74.1138 164.59C82.2386 164.59 93.534 158.458 94.723 150.149H94.7234Z" fill="url(#paint15_linear_226_36405)"/>
<path fill-rule="evenodd" clip-rule="evenodd" d="M150.695 161.659C155.248 155.438 155.599 147.63 154.962 143.621C153.443 145.269 149.651 149.002 146.639 150.743C143.337 152.655 134.71 155.609 126.625 152.127C116.915 147.946 112.357 139.071 112.159 132.74C111.829 136.763 111.406 145.876 111.564 150.149H111.568C112.757 158.458 124.052 164.59 132.177 164.59C140.291 164.59 144.979 161.894 149.596 158.472L149.615 158.458C149.952 159.492 150.312 160.561 150.695 161.659Z" fill="url(#paint16_linear_226_36405)"/>
<path fill-rule="evenodd" clip-rule="evenodd" d="M62.2412 78.1414L62.2238 78.1406C64.9981 80.6464 71.062 87.7945 73.1229 96.3405C75.699 107.023 76.888 108.803 79.8605 108.803H101.857H104.433H126.429C129.402 108.803 130.591 107.023 133.167 96.3405C135.228 87.7945 141.292 80.6464 144.066 78.1406L144.049 78.1414C142.123 79.458 139.998 80.5145 137.708 80.5145H105.226H101.064H68.5816C66.2922 80.5145 64.1667 79.458 62.2412 78.1414Z" fill="white"/>
<path fill-rule="evenodd" clip-rule="evenodd" d="M94.1283 132.746C93.9279 139.149 89.5259 148.095 79.7409 152.309C71.5756 155.825 62.8798 152.842 59.5483 150.913L59.7471 150.571C63.0211 152.467 71.5789 155.393 79.5839 151.945C89.219 147.796 93.5363 138.993 93.7322 132.734L94.1283 132.746Z" fill="#00BBE5"/>
<path fill-rule="evenodd" clip-rule="evenodd" d="M112.124 132.746C112.325 139.149 116.727 148.095 126.512 152.309C134.677 155.825 143.373 152.842 146.704 150.913L146.506 150.571C143.232 152.467 134.674 155.393 126.669 151.945C117.034 147.796 112.716 138.993 112.521 132.734L112.124 132.746Z" fill="#00BBE5"/>
<path fill-rule="evenodd" clip-rule="evenodd" d="M141.834 222.151C148.678 210.32 144.625 195.196 132.781 188.371C120.937 181.547 105.787 185.605 98.9431 197.436L88.0656 216.24L85.4493 220.763L82.8333 225.285L89.7382 223.234L89.7979 223.268L91.5968 229.981L98.3206 228.179L98.4115 228.232L100.21 234.944L106.934 233.143L107.025 233.195L108.824 239.907L115.521 238.113L117.313 244.799L124.037 242.998L124.052 243.006L125.725 250L128.341 245.478L130.957 240.955L141.834 222.151Z" fill="#374151"/>
<path fill-rule="evenodd" clip-rule="evenodd" d="M141.834 222.151C148.678 210.32 144.625 195.196 132.781 188.371C120.937 181.547 105.787 185.605 98.9431 197.436L88.0656 216.24L85.4493 220.763L82.8333 225.285L89.7382 223.234L89.7979 223.268L91.5968 229.981L98.3206 228.179L98.4115 228.232L100.21 234.944L106.934 233.143L107.025 233.195L108.824 239.907L115.521 238.113L117.313 244.799L124.037 242.998L124.052 243.006L125.725 250L128.341 245.478L130.957 240.955L141.834 222.151Z" fill="url(#paint17_linear_226_36405)" fill-opacity="0.7"/>
<path d="M125.901 214.558C124.152 217.582 125.187 221.447 128.214 223.191C131.241 224.935 135.112 223.898 136.862 220.874C138.611 217.85 137.575 213.985 134.548 212.241C131.522 210.497 127.65 211.535 125.901 214.558Z" fill="#374151"/>
<path fill-rule="evenodd" clip-rule="evenodd" d="M128.611 222.506C125.963 220.98 125.057 217.599 126.587 214.954C128.117 212.309 131.504 211.401 134.152 212.927C136.8 214.452 137.706 217.834 136.175 220.479C134.645 223.124 131.258 224.031 128.611 222.506ZM128.214 223.191C125.187 221.447 124.152 217.582 125.901 214.558C127.65 211.535 131.522 210.497 134.548 212.241C137.575 213.985 138.611 217.85 136.862 220.874C135.112 223.898 131.241 224.935 128.214 223.191Z" fill="#6B7280"/>
<path d="M129.713 216.755C129.18 217.675 129.495 218.852 130.417 219.382C131.338 219.913 132.516 219.598 133.049 218.677C133.581 217.757 133.266 216.581 132.344 216.05C131.423 215.519 130.245 215.835 129.713 216.755Z" fill="#111928"/>
<path d="M112.552 206.865C110.802 209.889 111.838 213.754 114.865 215.498C117.892 217.242 121.763 216.205 123.513 213.181C125.262 210.157 124.226 206.292 121.199 204.548C118.173 202.804 114.301 203.841 112.552 206.865Z" fill="#374151"/>
<path fill-rule="evenodd" clip-rule="evenodd" d="M115.261 214.812C112.614 213.287 111.708 209.906 113.238 207.26C114.768 204.615 118.155 203.708 120.803 205.233C123.451 206.759 124.357 210.14 122.826 212.785C121.296 215.431 117.909 216.338 115.261 214.812ZM114.865 215.498C111.838 213.754 110.802 209.889 112.552 206.865C114.301 203.841 118.173 202.804 121.199 204.548C124.226 206.292 125.262 210.157 123.513 213.181C121.763 216.205 117.892 217.242 114.865 215.498Z" fill="#6B7280"/>
<path d="M116.363 209.062C115.831 209.982 116.146 211.158 117.067 211.689C117.989 212.22 119.167 211.904 119.699 210.984C120.232 210.064 119.916 208.887 118.995 208.357C118.074 207.826 116.896 208.141 116.363 209.062Z" fill="#111928"/>
<path fill-rule="evenodd" clip-rule="evenodd" d="M61.5211 45.7144C55.5615 35.4122 59.091 22.2429 69.4045 16.3C79.7179 10.3571 92.9099 13.891 98.8695 24.1933L108.341 40.567L110.62 44.5053L112.897 48.4431L106.885 46.6573L106.833 46.6872L105.266 52.532L99.4116 50.9636L99.3324 51.0092L97.766 56.854L91.9111 55.2855L91.832 55.3312L90.2655 61.176L84.4339 59.6137L82.8736 65.4353L77.0188 63.8669L77.0058 63.8744L75.5491 69.9643L73.2711 66.0264L70.9929 62.0882L61.5211 45.7144Z" fill="#374151"/>
<path fill-rule="evenodd" clip-rule="evenodd" d="M61.5211 45.7144C55.5615 35.4122 59.091 22.2429 69.4045 16.3C79.7179 10.3571 92.9099 13.891 98.8695 24.1933L108.341 40.567L110.62 44.5053L112.897 48.4431L106.885 46.6573L106.833 46.6872L105.266 52.532L99.4116 50.9636L99.3324 51.0092L97.766 56.854L91.9111 55.2855L91.832 55.3312L90.2655 61.176L84.4339 59.6137L82.8736 65.4353L77.0188 63.8669L77.0058 63.8744L75.5491 69.9643L73.2711 66.0264L70.9929 62.0882L61.5211 45.7144Z" fill="url(#paint18_linear_226_36405)" fill-opacity="0.7"/>
<path d="M75.397 39.1026C76.9202 41.7355 76.0183 45.1011 73.3827 46.6198C70.7471 48.1385 67.3757 47.2351 65.8525 44.6022C64.3294 41.9692 65.2312 38.6036 67.8668 37.0849C70.5025 35.5662 73.8738 36.4696 75.397 39.1026Z" fill="#374151"/>
<path fill-rule="evenodd" clip-rule="evenodd" d="M72.9861 45.9343C75.2428 44.634 76.0149 41.7523 74.7108 39.498C73.4066 37.2436 70.52 36.4702 68.2634 37.7704C66.0068 39.0707 65.2346 41.9524 66.5388 44.2067C67.8429 46.4611 70.7295 47.2346 72.9861 45.9343ZM73.3827 46.6198C76.0183 45.1011 76.9202 41.7355 75.397 39.1026C73.8738 36.4696 70.5025 35.5662 67.8668 37.0849C65.2312 38.6036 64.3294 41.9692 65.8525 44.6022C67.3757 47.2351 70.7471 48.1385 73.3827 46.6198Z" fill="#6B7280"/>
<path d="M72.0779 41.0154C72.5415 41.8168 72.267 42.8411 71.4648 43.3033C70.6627 43.7655 69.6366 43.4906 69.1731 42.6892C68.7095 41.8879 68.9839 40.8636 69.7861 40.4014C70.5882 39.9392 71.6143 40.2141 72.0779 41.0154Z" fill="#111928"/>
<path d="M86.8899 32.3765C88.4131 35.0095 87.5113 38.375 84.8756 39.8937C82.24 41.4124 78.8686 40.5091 77.3455 37.8761C75.8223 35.2431 76.7241 31.8775 79.3598 30.3588C81.9954 28.8402 85.3668 29.7435 86.8899 32.3765Z" fill="#374151"/>
<path fill-rule="evenodd" clip-rule="evenodd" d="M84.479 39.2082C86.7357 37.9079 87.5078 35.0263 86.2037 32.7719C84.8996 30.5175 82.013 29.7441 79.7563 31.0444C77.4997 32.3447 76.7275 35.2263 78.0317 37.4807C79.3358 39.735 82.2224 40.5085 84.479 39.2082ZM84.8756 39.8937C87.5113 38.375 88.4131 35.0095 86.8899 32.3765C85.3668 29.7435 81.9954 28.8402 79.3598 30.3588C76.7241 31.8775 75.8223 35.2431 77.3455 37.8761C78.8686 40.5091 82.24 41.4124 84.8756 39.8937Z" fill="#6B7280"/>
<path d="M83.5708 34.2894C84.0344 35.0907 83.7599 36.115 82.9578 36.5772C82.1556 37.0394 81.1295 36.7645 80.666 35.9632C80.2024 35.1618 80.4769 34.1375 81.279 33.6753C82.0812 33.2131 83.1072 33.488 83.5708 34.2894Z" fill="#111928"/>
<path d="M153.126 47.0825L-nan -nanC-nan -nan -nan -nan 159.609 53.5543C-nan -nan -nan -nan 159.609 53.5543Lnan nanL159.609 53.5543L-nan -nanL159.609 53.5543C-nan -nan -nan -nan 153.126 60.0261C-nan -nan -nan -nan 153.126 60.0261Lnan nanL153.126 60.0261L-nan -nanL153.126 60.0261C-nan -nan -nan -nan 146.643 53.5543C-nan -nan -nan -nan 146.643 53.5543Lnan nanL146.643 53.5543L-nan -nanL146.643 53.5543C-nan -nan -nan -nan nan nanL153.126 47.0825Z" fill="#111928"/>
<path d="M70.4753 183.794L-nan -nanC-nan -nan -nan -nan 75.16 188.471C-nan -nan -nan -nan 75.16 188.471Lnan nanL75.16 188.471L-nan -nanL75.16 188.471C-nan -nan -nan -nan 70.4753 193.147C-nan -nan -nan -nan 70.4753 193.147Lnan nanL70.4753 193.147L-nan -nanL70.4753 193.147C-nan -nan -nan -nan 65.7905 188.471C-nan -nan -nan -nan 65.7905 188.471Lnan nanL65.7905 188.471L-nan -nanL65.7905 188.471C-nan -nan -nan -nan nan nanL70.4753 183.794Z" fill="#374151"/>
<path d="M119.106 19.1082L-nan -nanC-nan -nan -nan -nan 121.972 21.9686C-nan -nan -nan -nan 121.972 21.9686Lnan nanL121.972 21.9686L-nan -nanL121.972 21.9686C-nan -nan -nan -nan 119.106 24.829C-nan -nan -nan -nan 119.106 24.829Lnan nanL119.106 24.829L-nan -nanL119.106 24.829C-nan -nan -nan -nan 116.241 21.9686C-nan -nan -nan -nan 116.241 21.9686Lnan nanL116.241 21.9686L-nan -nanL116.241 21.9686C-nan -nan -nan -nan nan nanL119.106 19.1082Z" fill="#374151"/>
<path d="M45.2727 50.6433L-nan -nanC-nan -nan -nan -nan 48.1381 53.5038C-nan -nan -nan -nan 48.1381 53.5038Lnan nanL48.1381 53.5038L-nan -nanL48.1381 53.5038C-nan -nan -nan -nan 45.2727 56.3642C-nan -nan -nan -nan 45.2727 56.3642Lnan nanL45.2727 56.3642L-nan -nanL45.2727 56.3642C-nan -nan -nan -nan 42.4073 53.5038C-nan -nan -nan -nan 42.4073 53.5038Lnan nanL42.4073 53.5038L-nan -nanL42.4073 53.5038C-nan -nan -nan -nan nan nanL45.2727 50.6433Z" fill="#111111"/>
<path d="M141.581 170.525L-nan -nanC-nan -nan -nan -nan 144.446 173.386C-nan -nan -nan -nan 144.446 173.386Lnan nanL144.446 173.386L-nan -nanL144.446 173.386C-nan -nan -nan -nan 141.581 176.246C-nan -nan -nan -nan 141.581 176.246Lnan nanL141.581 176.246L-nan -nanL141.581 176.246C-nan -nan -nan -nan 138.716 173.386C-nan -nan -nan -nan 138.716 173.386Lnan nanL138.716 173.386L-nan -nanL138.716 173.386C-nan -nan -nan -nan nan nanL141.581 170.525Z" fill="#374151"/>
<defs>
<linearGradient id="paint0_linear_226_36405" x1="108" y1="0" x2="108" y2="215.629" gradientUnits="userSpaceOnUse">
<stop stop-color="#1F2A37"/>
<stop offset="1" stop-color="#1F2A37" stop-opacity="0"/>
</linearGradient>
<linearGradient id="paint1_linear_226_36405" x1="78.0771" y1="208.903" x2="78.0771" y2="106.034" gradientUnits="userSpaceOnUse">
<stop stop-color="#76A9FA"/>
<stop offset="1" stop-color="#76A9FA" stop-opacity="0"/>
</linearGradient>
<linearGradient id="paint2_linear_226_36405" x1="62.6202" y1="122.453" x2="62.6202" y2="54.7974" gradientUnits="userSpaceOnUse">
<stop stop-color="white" stop-opacity="0"/>
<stop offset="1" stop-color="white"/>
</linearGradient>
<linearGradient id="paint3_linear_226_36405" x1="132.969" y1="139.466" x2="167.228" y2="136.911" gradientUnits="userSpaceOnUse">
<stop stop-color="#76A9FA"/>
<stop offset="1" stop-color="#76A9FA" stop-opacity="0"/>
</linearGradient>
<linearGradient id="paint4_linear_226_36405" x1="133.96" y1="143.027" x2="135.107" y2="148.2" gradientUnits="userSpaceOnUse">
<stop stop-color="white" stop-opacity="0"/>
<stop offset="1" stop-color="white"/>
</linearGradient>
<linearGradient id="paint5_linear_226_36405" x1="159.919" y1="107.221" x2="159.919" y2="120.871" gradientUnits="userSpaceOnUse">
<stop stop-color="#00BBE5" stop-opacity="0"/>
<stop offset="1" stop-color="#00BBE5"/>
</linearGradient>
<linearGradient id="paint6_linear_226_36405" x1="146.84" y1="96.9341" x2="146.84" y2="110.584" gradientUnits="userSpaceOnUse">
<stop stop-color="#00BBE5" stop-opacity="0"/>
<stop offset="1" stop-color="#00BBE5"/>
</linearGradient>
<linearGradient id="paint7_linear_226_36405" x1="172.998" y1="96.9341" x2="172.998" y2="110.584" gradientUnits="userSpaceOnUse">
<stop stop-color="#00BBE5" stop-opacity="0"/>
<stop offset="1" stop-color="#00BBE5"/>
</linearGradient>
<linearGradient id="paint8_linear_226_36405" x1="159.919" y1="86.2515" x2="159.919" y2="99.9014" gradientUnits="userSpaceOnUse">
<stop stop-color="#00BBE5" stop-opacity="0"/>
<stop offset="1" stop-color="#00BBE5"/>
</linearGradient>
<linearGradient id="paint9_linear_226_36405" x1="47.7578" y1="98.6273" x2="47.7578" y2="80.6445" gradientUnits="userSpaceOnUse">
<stop stop-color="#1C64F2" stop-opacity="0"/>
<stop offset="1" stop-color="#1C64F2"/>
</linearGradient>
<linearGradient id="paint10_linear_226_36405" x1="47.7578" y1="100.78" x2="47.7578" y2="118.763" gradientUnits="userSpaceOnUse">
<stop stop-color="#1C64F2" stop-opacity="0"/>
<stop offset="1" stop-color="#1C64F2"/>
</linearGradient>
<linearGradient id="paint11_linear_226_36405" x1="49.2546" y1="99.5057" x2="66.9672" y2="99.5057" gradientUnits="userSpaceOnUse">
<stop stop-color="#00BBE5" stop-opacity="0"/>
<stop offset="1" stop-color="#00BBE5"/>
</linearGradient>
<linearGradient id="paint12_linear_226_36405" x1="46.6573" y1="99.5058" x2="28.9447" y2="99.5058" gradientUnits="userSpaceOnUse">
<stop stop-color="#00BBE5" stop-opacity="0"/>
<stop offset="1" stop-color="#00BBE5"/>
</linearGradient>
<linearGradient id="paint13_linear_226_36405" x1="73.1229" y1="139.466" x2="38.8636" y2="136.911" gradientUnits="userSpaceOnUse">
<stop stop-color="#76A9FA"/>
<stop offset="1" stop-color="#76A9FA" stop-opacity="0"/>
</linearGradient>
<linearGradient id="paint14_linear_226_36405" x1="72.1321" y1="143.027" x2="70.9846" y2="148.2" gradientUnits="userSpaceOnUse">
<stop stop-color="white" stop-opacity="0"/>
<stop offset="1" stop-color="white"/>
</linearGradient>
<linearGradient id="paint15_linear_226_36405" x1="98.0918" y1="125.421" x2="67.5306" y2="141.751" gradientUnits="userSpaceOnUse">
<stop stop-color="#76A9FA"/>
<stop offset="1" stop-color="#76A9FA" stop-opacity="0"/>
</linearGradient>
<linearGradient id="paint16_linear_226_36405" x1="108.195" y1="125.421" x2="138.756" y2="141.751" gradientUnits="userSpaceOnUse">
<stop stop-color="#76A9FA"/>
<stop offset="1" stop-color="#76A9FA" stop-opacity="0"/>
</linearGradient>
<linearGradient id="paint17_linear_226_36405" x1="102.038" y1="265.293" x2="133.262" y2="201.328" gradientUnits="userSpaceOnUse">
<stop stop-color="#111928"/>
<stop offset="1" stop-color="#111928" stop-opacity="0"/>
</linearGradient>
<linearGradient id="paint18_linear_226_36405" x1="96.1749" y1="83.2809" x2="68.986" y2="27.5818" gradientUnits="userSpaceOnUse">
<stop stop-color="#111928"/>
<stop offset="1" stop-color="#111928" stop-opacity="0"/>
</linearGradient>
</defs>
</svg>
