<svg width="606" height="588" viewBox="0 0 606 588" fill="none" xmlns="http://www.w3.org/2000/svg">
<path d="M407 166C407 164.895 407.895 164 409 164H604C605.105 164 606 164.895 606 166V585C606 586.105 605.105 587 604 587H409C407.895 587 407 586.105 407 585V166Z" fill="#E1EFFE"/>
<path d="M407 166C407 164.895 407.895 164 409 164H604C605.105 164 606 164.895 606 166V585C606 586.105 605.105 587 604 587H409C407.895 587 407 586.105 407 585V166Z" fill="url(#paint0_linear_1240_66171)"/>
<path d="M407 176H606V8C606 3.58173 602.418 0 598 0H415C410.582 0 407 3.58173 407 8V176Z" fill="#E1EFFE"/>
<path d="M407 176H606V8C606 3.58173 602.418 0 598 0H415C410.582 0 407 3.58173 407 8V176Z" fill="url(#paint1_linear_1240_66171)"/>
<path d="M513.5 130C509.5 122 502.833 114 500 111L527.5 107C525.167 110.833 521.1 120.3 523.5 127.5C526.5 136.5 527 144 523.5 144C520 144 518.5 140 513.5 130Z" fill="#F9FAFB"/>
<path d="M513.5 130C509.5 122 502.833 114 500 111L527.5 107C525.167 110.833 521.1 120.3 523.5 127.5C526.5 136.5 527 144 523.5 144C520 144 518.5 140 513.5 130Z" fill="#A4CAFE"/>
<path d="M513.5 130C509.5 122 502.833 114 500 111L527.5 107C525.167 110.833 521.1 120.3 523.5 127.5C526.5 136.5 527 144 523.5 144C520 144 518.5 140 513.5 130Z" fill="url(#paint2_linear_1240_66171)"/>
<path d="M513.5 130C509.5 122 502.833 114 500 111L527.5 107C525.167 110.833 521.1 120.3 523.5 127.5C526.5 136.5 527 144 523.5 144C520 144 518.5 140 513.5 130Z" fill="url(#paint3_linear_1240_66171)"/>
<path d="M517 124C517 119.2 522.667 112.833 527.5 110.5C537.667 106.333 561.6 101.8 560 115C558 131.5 542 131.5 534.5 131C527 130.5 517 130 517 124Z" fill="#F9FAFB"/>
<path d="M517 124C517 119.2 522.667 112.833 527.5 110.5C537.667 106.333 561.6 101.8 560 115C558 131.5 542 131.5 534.5 131C527 130.5 517 130 517 124Z" fill="#A4CAFE"/>
<path d="M517 124C517 119.2 522.667 112.833 527.5 110.5C537.667 106.333 561.6 101.8 560 115C558 131.5 542 131.5 534.5 131C527 130.5 517 130 517 124Z" fill="url(#paint4_linear_1240_66171)"/>
<path d="M517 124C517 119.2 522.667 112.833 527.5 110.5C537.667 106.333 561.6 101.8 560 115C558 131.5 542 131.5 534.5 131C527 130.5 517 130 517 124Z" fill="url(#paint5_linear_1240_66171)"/>
<path d="M438.499 55.5001C434.499 59.1001 435.166 64.6667 435.999 67.0001C434.333 67.6667 431.2 70.3 432 75.5C432.8 80.7 438 82 440.5 82C447 95.5 458 91.5 460.5 93.5C462.5 95.1 463.666 98.5 464 100C464.4 105.2 469.833 106.5 472.5 106.5C475 116 484 117.5 503.5 114.5C523 111.5 543 114.5 554 116.5C565 118.5 569.5 109 569.5 103C569.5 97 574 95 574.5 87.5C575 80 569.5 76.5 569.5 70C569.5 64.8 564.833 59.5 562.5 57.5C563.3 48.7 556.5 45.1667 553 44.5C553 38.5 535.5 30 529 28.5C522.5 27 517 26.5001 514.5 25.5C512 24.4999 505 24.0001 501 23.5001C497 23.0001 491.5 26.0001 482.5 26.5001C473.5 27.0001 469 33.5001 466.5 34.0001C464 34.5001 458.5 34.5001 455 38.5001C451.5 42.5001 450.5 42.0001 447.5 45.5001C444.5 49.0001 443.499 51.0001 438.499 55.5001Z" fill="#F9FAFB"/>
<path d="M438.499 55.5001C434.499 59.1001 435.166 64.6667 435.999 67.0001C434.333 67.6667 431.2 70.3 432 75.5C432.8 80.7 438 82 440.5 82C447 95.5 458 91.5 460.5 93.5C462.5 95.1 463.666 98.5 464 100C464.4 105.2 469.833 106.5 472.5 106.5C475 116 484 117.5 503.5 114.5C523 111.5 543 114.5 554 116.5C565 118.5 569.5 109 569.5 103C569.5 97 574 95 574.5 87.5C575 80 569.5 76.5 569.5 70C569.5 64.8 564.833 59.5 562.5 57.5C563.3 48.7 556.5 45.1667 553 44.5C553 38.5 535.5 30 529 28.5C522.5 27 517 26.5001 514.5 25.5C512 24.4999 505 24.0001 501 23.5001C497 23.0001 491.5 26.0001 482.5 26.5001C473.5 27.0001 469 33.5001 466.5 34.0001C464 34.5001 458.5 34.5001 455 38.5001C451.5 42.5001 450.5 42.0001 447.5 45.5001C444.5 49.0001 443.499 51.0001 438.499 55.5001Z" fill="#A4CAFE"/>
<path d="M438.499 55.5001C434.499 59.1001 435.166 64.6667 435.999 67.0001C434.333 67.6667 431.2 70.3 432 75.5C432.8 80.7 438 82 440.5 82C447 95.5 458 91.5 460.5 93.5C462.5 95.1 463.666 98.5 464 100C464.4 105.2 469.833 106.5 472.5 106.5C475 116 484 117.5 503.5 114.5C523 111.5 543 114.5 554 116.5C565 118.5 569.5 109 569.5 103C569.5 97 574 95 574.5 87.5C575 80 569.5 76.5 569.5 70C569.5 64.8 564.833 59.5 562.5 57.5C563.3 48.7 556.5 45.1667 553 44.5C553 38.5 535.5 30 529 28.5C522.5 27 517 26.5001 514.5 25.5C512 24.4999 505 24.0001 501 23.5001C497 23.0001 491.5 26.0001 482.5 26.5001C473.5 27.0001 469 33.5001 466.5 34.0001C464 34.5001 458.5 34.5001 455 38.5001C451.5 42.5001 450.5 42.0001 447.5 45.5001C444.5 49.0001 443.499 51.0001 438.499 55.5001Z" fill="url(#paint6_linear_1240_66171)"/>
<path fill-rule="evenodd" clip-rule="evenodd" d="M493.302 30.5918C494.425 27.1291 496.48 25.2012 497.777 24.5528L498.224 25.4472C497.17 25.9741 495.209 27.7459 494.176 31.1454C493.841 32.2464 493.604 33.5186 493.527 34.9743C494.349 34.1955 495.095 33.563 495.697 33.1028L496.304 33.8972C494.546 35.2416 491.447 38.1723 488.915 41.9481C487.457 44.1236 486.195 46.5656 485.482 49.1338C485.391 49.4619 485.311 49.7862 485.241 50.1063C483.825 56.6174 486.706 61.4986 488.354 63.1465L487.647 63.8536C485.833 62.0394 482.871 56.9756 484.188 50.2608C482.95 49.6513 479.874 48.7779 475.582 49.4932C473.13 49.9019 470.674 51.9497 468.642 54.325C467.177 56.0381 465.978 57.8684 465.213 59.2358C465.626 59.4576 466.001 59.8003 466.333 60.1867C466.831 60.7673 467.289 61.5111 467.694 62.2956C468.505 63.8663 469.141 65.6741 469.481 66.8626L468.519 67.1374C468.192 65.9926 467.578 64.2504 466.806 62.7544C466.419 62.0056 466.002 61.3369 465.574 60.8383C465.136 60.3289 464.738 60.0576 464.402 59.9903C463.996 59.9091 463.394 59.939 462.643 60.0734C461.904 60.2057 461.067 60.4302 460.214 60.7015C458.509 61.2439 456.779 61.9606 455.71 62.454L455.291 61.546C456.388 61.0394 458.158 60.3061 459.911 59.7485C460.787 59.4698 461.669 59.2318 462.467 59.0891C463.095 58.9767 463.702 58.9173 464.223 58.9588C464.943 57.6419 466.078 55.869 467.48 54.156C465.551 53.0656 464.105 51.3498 463.072 49.6328C461.939 47.7499 461.277 45.8233 461.012 44.6064L461.989 44.3936C462.232 45.5101 462.855 47.3335 463.929 49.1172C464.941 50.7995 466.331 52.4089 468.14 53.3779C470.025 51.2359 472.373 49.2428 474.877 48.6194C474.577 47.3088 474.525 45.4253 474.575 43.5862C474.634 41.4506 474.836 39.2842 475.004 37.938L475.996 38.062C475.831 39.3825 475.633 41.5161 475.575 43.6138C475.523 45.4997 475.588 47.2871 475.861 48.4377C479.886 47.8527 482.91 48.5889 484.413 49.2622C484.447 49.1308 484.482 48.9987 484.519 48.8662C485.205 46.3938 486.368 44.0551 487.712 41.9603C486.395 41.5117 484.982 40.6711 483.725 39.7871C482.239 38.7423 480.92 37.5991 480.153 36.8599L480.847 36.1401C481.581 36.8473 482.861 37.9568 484.3 38.9691C485.631 39.9047 487.054 40.7261 488.286 41.0945C489.638 39.1235 491.13 37.3869 492.5 35.9853C492.501 34.3621 492.688 32.9242 492.998 31.6613C492.953 31.6682 492.907 31.6749 492.86 31.6815C492.416 31.7447 491.855 31.8062 491.209 31.8651C489.918 31.9831 488.271 32.0929 486.512 32.1868C482.995 32.3746 479.012 32.5 476.5 32.5C474.644 32.5 472.744 33.3554 471.094 34.4762C469.45 35.5923 468.11 36.9334 467.387 37.8166L467.258 37.9744L467.055 37.997C462.65 38.4864 460.254 39.8218 458.466 41.4905C457.559 42.337 456.799 43.2781 456.001 44.2804C455.966 44.3239 455.931 44.3676 455.896 44.4115C455.134 45.3682 454.332 46.3749 453.354 47.3536C450.302 50.4052 450.181 54.3524 450.491 55.902L449.51 56.098C449.35 55.2988 449.291 53.9905 449.576 52.4885C447.676 53.8268 445.26 55.5917 443.11 57.2926C441.79 58.3372 440.578 59.3521 439.649 60.2258C439.184 60.6629 438.797 61.0588 438.504 61.401C438.204 61.7522 438.033 62.0142 437.964 62.1857C437.112 64.3163 438.809 66.5 441 66.5C441.264 66.5 441.569 66.4664 441.907 66.4021C443.638 66.0732 445.934 65.0062 447.279 64.2856C446.754 63.1477 446.176 61.9701 445.553 60.7236L446.447 60.2764C447.149 61.6806 447.799 63.0078 448.383 64.2935C450.297 68.5146 451.5 72.3048 451.5 77C451.5 79.2695 452.367 81.2542 453.472 82.8249C454.578 84.3986 455.905 85.5286 456.769 86.0782L456.232 86.9218C455.262 86.3047 453.838 85.0848 452.654 83.4002C451.467 81.7125 450.5 79.5305 450.5 77C450.5 72.6789 449.444 69.1475 447.693 65.1985C446.36 65.908 444.136 66.9438 442.323 67.3377C441.657 68.5684 441.36 70.111 441.274 71.5917C441.185 73.1436 441.332 74.5753 441.491 75.4058L440.509 75.5942C440.335 74.6869 440.182 73.1726 440.276 71.5343C440.352 70.2104 440.592 68.7708 441.137 67.4978C441.091 67.4993 441.045 67.5 441 67.5C438.192 67.5 435.888 64.6837 437.036 61.8143C437.167 61.4858 437.427 61.1225 437.744 60.7514C438.069 60.3714 438.485 59.9481 438.964 59.4974C439.923 58.5956 441.16 57.5608 442.49 56.5084C445.041 54.4898 447.958 52.3865 449.962 50.9986C450.445 49.5453 451.278 48.0148 452.647 46.6465C453.584 45.7087 454.355 44.7417 455.123 43.7769C455.155 43.737 455.187 43.6971 455.219 43.6572C456.014 42.6594 456.816 41.663 457.784 40.7595C459.717 38.9551 462.274 37.5552 466.744 37.0261C467.543 36.0823 468.894 34.7611 470.532 33.6489C472.256 32.478 474.356 31.5 476.5 31.5C478.989 31.5 482.953 31.3754 486.459 31.1882C488.211 31.0946 489.845 30.9857 491.118 30.8693C491.756 30.811 492.298 30.7514 492.719 30.6915C492.971 30.6556 493.164 30.6216 493.302 30.5918ZM510.592 26.3763C511.356 26.0006 512.262 25.691 512.863 25.5192L513.137 26.4808C512.572 26.6424 511.727 26.9327 511.033 27.2738C510.684 27.4454 510.397 27.6184 510.204 27.7798C510.023 27.9323 510.002 28.0096 510 28.0091C510.002 28.6204 510.207 30.4416 510.375 31.8132C511.002 31.3285 511.713 30.9603 512.393 30.6866C513.364 30.2955 514.31 30.0824 514.938 30.0039L515.062 30.9961C514.516 31.0644 513.655 31.2565 512.766 31.6143C511.874 31.9733 510.993 32.4841 510.37 33.1688C510.202 33.3533 510.054 33.5493 509.929 33.7573C509.744 34.0652 509.572 34.3628 509.404 34.6542C508.907 35.5128 508.442 36.3183 507.77 37.182C506.861 38.3507 505.577 39.6294 503.307 41.3947C501.658 42.677 500.728 45.0611 500.267 47.6381C499.81 50.1929 499.835 52.8206 499.998 54.4503L499.003 54.5498C498.832 52.846 498.807 50.1238 499.283 47.462C499.755 44.8222 500.742 42.123 502.693 40.6053C504.924 38.8706 506.139 37.6493 506.98 36.568C507.607 35.7628 508.027 35.0366 508.512 34.1966C508.686 33.8961 508.868 33.5811 509.071 33.2428C509.192 33.0415 509.328 32.852 509.475 32.6739C509.303 31.3336 509 28.7946 509 28C509 27.5633 509.304 27.2298 509.561 27.0139C509.843 26.7775 510.212 26.5629 510.592 26.3763ZM524.221 31.1104C525.404 29.9999 526.816 29.0763 527.761 28.5611L528.24 29.439C527.351 29.9237 526.013 30.8001 524.905 31.8397C524.351 32.3591 523.868 32.9071 523.526 33.4553C523.182 34.0058 523 34.5261 523 35C523 35.0284 523 35.0571 522.999 35.0858C525.42 34.0445 528.689 33.93 531.825 34.2019C535.423 34.5138 538.972 35.3472 541.148 36.0225L540.852 36.9775C538.731 36.3195 535.254 35.5028 531.739 35.1981C528.277 34.898 524.897 35.1064 522.715 36.3393C522.383 37.2407 521.785 38.3108 521.092 39.4509C520.72 40.0642 520.313 40.7079 519.897 41.3664L519.884 41.3864C519.472 42.0399 519.049 42.7087 518.636 43.3846C517.8 44.7521 517.012 46.1338 516.433 47.4463C515.851 48.7654 515.5 49.9729 515.5 51C515.5 52.0891 515.548 53.2266 515.597 54.3879C515.604 54.5456 515.61 54.7037 515.617 54.8621C515.672 56.1823 515.719 57.5252 515.687 58.8247C515.624 61.4076 515.249 63.9123 513.907 65.7906L513.093 65.2094C514.252 63.5877 514.626 61.3424 514.688 58.8003C514.719 57.5373 514.672 56.224 514.618 54.9035C514.611 54.7459 514.605 54.588 514.598 54.4302C514.549 53.2717 514.5 52.1116 514.5 51C514.5 49.7682 514.915 48.4106 515.518 47.0427C516.124 45.6684 516.94 44.2415 517.783 42.863C518.2 42.1811 518.625 41.5073 519.037 40.8559L519.052 40.8324C519.469 40.1724 519.87 39.5362 520.238 38.9316C520.978 37.7124 521.555 36.6607 521.83 35.8408C521.947 35.493 522 35.2145 522 35C522 34.2739 522.276 33.5692 522.677 32.926C523.08 32.2804 523.628 31.666 524.221 31.1104ZM528.728 46.7315C528.911 44.9995 529.533 43.3104 530.053 42.2755L530.947 42.7245C530.467 43.6794 529.89 45.2516 529.722 46.8364C529.565 48.3262 529.779 49.7186 530.641 50.6676C532.356 50.1655 534.271 50.1216 536.582 50.5068C541.078 51.256 543.956 53.489 545.119 54.8445C549.537 52.0894 551.896 47.3873 552.522 45.353L553.478 45.6471C552.808 47.8254 550.342 52.7546 545.673 55.6776C546.523 57.3713 546.512 59.4842 546.18 61.4098C545.817 63.5244 545.049 65.5211 544.447 66.7236L543.553 66.2764C544.118 65.1456 544.85 63.2423 545.195 61.2402C545.541 59.227 545.478 57.2193 544.584 55.7782C543.817 54.7149 541.072 52.2688 536.418 51.4932C534.079 51.1033 532.249 51.187 530.656 51.7098C528.251 52.499 526.284 54.3201 523.891 57.3124L523.11 56.6877C525.311 53.9356 527.268 52.012 529.639 51.0223C528.728 49.7997 528.572 48.2041 528.728 46.7315ZM476.279 59.9541C475.872 58.8037 475.385 57.806 475.066 57.2481L475.934 56.7519C476.282 57.3607 476.795 58.413 477.222 59.6209C477.647 60.8238 478 62.2185 478 63.5C478 64.6222 478.479 66.8102 479.108 69.1532C479.686 71.3056 480.371 73.525 480.864 75.0291C484.644 75.1208 491.51 75.4083 495.217 75.5748C495.356 75.3644 495.538 75.1723 495.777 75.0528C496.104 74.8894 497.628 74.2003 499.794 73.3141C499.05 72.4044 498.54 71.1624 498.193 69.968C497.763 68.4828 497.558 66.9747 497.501 66.0301L498.499 65.9699C498.553 66.8517 498.747 68.2854 499.154 69.6894C499.53 70.9849 500.065 72.1777 500.777 72.9165C505.636 70.9719 513.04 68.3296 517.967 68.0011C521.597 67.7591 524.36 68.6898 526.243 69.8297C527.465 68.251 529.441 66.3832 531.434 64.6708C533.598 62.8108 535.819 61.1023 537.206 60.0953L537.794 60.9047C536.425 61.8977 534.226 63.5893 532.085 65.4292C530.118 67.12 528.232 68.9098 527.076 70.3869C527.944 71.0271 528.56 71.6888 528.916 72.2227L528.084 72.7774C527.757 72.2872 527.097 71.5861 526.09 70.9164C524.381 69.7811 521.7 68.7544 518.033 68.9989C513.188 69.322 505.722 72.0018 500.852 73.9638C498.333 74.9787 496.547 75.7856 496.224 75.9472C496.166 75.9761 496.064 76.0696 495.951 76.3049C495.789 76.6402 495.673 77.1222 495.599 77.6381C495.527 78.146 495.5 78.6482 495.5 79H494.5C494.5 78.6059 494.529 78.0561 494.609 77.4964C494.654 77.1884 494.715 76.865 494.8 76.5572C490.896 76.3832 484.05 76.0992 480.489 76.0207C479.886 76.0074 479.38 76 479 76C478.393 76 477.626 76.2367 476.719 76.702C475.821 77.1631 474.828 77.8261 473.782 78.6262C471.69 80.2262 469.431 82.3378 467.35 84.3756C466.476 85.2314 465.636 86.0716 464.854 86.8536C463.095 88.6119 462.274 90.0851 461.941 91.1826C461.604 92.2931 461.775 92.9856 461.929 93.2428L461.071 93.7573C460.726 93.1811 460.596 92.1735 460.984 90.8925C461.376 89.5982 462.305 87.9881 464.147 86.1465L464.148 86.1452C464.707 85.5861 465.298 84.9951 465.911 84.3891C464.657 84.1009 463.361 83.3665 462.222 82.5509C460.724 81.4793 459.397 80.195 458.627 79.3331L459.373 78.6669C460.103 79.4839 461.376 80.7161 462.804 81.7377C464.177 82.7205 465.608 83.4454 466.802 83.5132C468.847 81.5151 471.083 79.4314 473.175 77.8318C474.246 77.0124 475.291 76.3109 476.263 75.8123C477.226 75.318 478.161 75 479 75C479.229 75 479.499 75.0026 479.805 75.0074C479.319 73.5059 478.684 71.4316 478.142 69.4124C477.521 67.0967 477 64.7778 477 63.5C477 62.3815 476.687 61.1095 476.279 59.9541ZM460.414 71.1784C459.035 70.5374 457.698 70.1495 456.902 69.9903L457.098 69.0097C457.969 69.1839 459.382 69.596 460.836 70.2716C462.285 70.945 463.818 71.8999 464.884 73.1799C466.819 75.5017 469.578 77.061 470.697 77.5404L470.303 78.4596C469.088 77.939 466.181 76.2983 464.116 73.8201C463.183 72.7001 461.799 71.8217 460.414 71.1784ZM548.694 80.8293C551.638 77.0678 554.145 72.6747 555.55 69.7816L556.45 70.2185C555.022 73.1586 552.479 77.6156 549.481 81.4457C547.983 83.3607 546.36 85.1326 544.694 86.4808C543.035 87.824 541.294 88.7796 539.562 88.9961C537.207 89.2905 534.027 89.8458 530.442 90.4718C528.967 90.7294 527.423 90.9989 525.841 91.2672C520.428 92.1845 514.575 93.083 509.533 93.4117C507.533 93.542 505.654 93.5833 503.975 93.4994C498.473 93.2243 494.346 93.7118 491.074 94.2022C490.552 94.2805 490.048 94.3594 489.562 94.4357C487.624 94.7396 485.963 95 484.5 95C482.509 95 480.836 95.1267 479.426 95.6557C478.039 96.1756 476.879 97.0953 475.934 98.7481C474.377 101.473 473.658 104.77 473.496 106.062L472.504 105.938C472.676 104.563 473.423 101.127 475.066 98.2519C475.564 97.3801 476.126 96.6792 476.749 96.1184C476.183 95.7217 475.29 94.9974 474.147 93.8536C472.695 92.4019 470.814 92.3471 470.098 92.4903L469.902 91.5097C470.853 91.3196 473.105 91.3981 474.854 93.1465C476.235 94.5279 477.188 95.2283 477.584 95.4729C478.051 95.1645 478.548 94.9166 479.075 94.7193C480.664 94.1233 482.491 94 484.5 94C485.878 94 487.437 93.7559 489.364 93.4541C489.697 93.402 490.041 93.3482 490.397 93.2936C490.259 92.4905 490.183 91.2064 490.515 89.8787C490.9 88.3409 491 85.9918 491 85H492C492 86.0082 491.901 88.4591 491.485 90.1213C491.188 91.311 491.267 92.4683 491.386 93.1453C494.621 92.6737 498.688 92.2338 504.025 92.5006C505.528 92.5758 507.209 92.548 509.011 92.4421C509.049 91.5781 509.183 90.3273 509.45 89.1276C509.61 88.4065 509.822 87.6864 510.099 87.073C510.371 86.4715 510.732 85.9115 511.223 85.584C511.443 85.4373 511.706 85.1501 511.992 84.7316C512.273 84.3218 512.552 83.8224 512.814 83.291C513.34 82.2281 513.781 81.0751 514.026 80.3419L514.974 80.6581C514.719 81.4249 514.261 82.6219 513.711 83.7341C513.436 84.2901 513.134 84.8344 512.817 85.2965C512.507 85.7499 512.157 86.1627 511.777 86.416C511.519 86.5885 511.255 86.9442 511.011 87.4846C510.772 88.0131 510.578 88.6611 510.426 89.3447C510.183 90.4369 510.057 91.5756 510.015 92.3761C514.877 92.0239 520.46 91.1648 525.673 90.2812C527.238 90.0161 528.771 89.7484 530.24 89.4918C533.838 88.8636 537.058 88.3014 539.438 88.0039C540.906 87.8204 542.473 86.9927 544.065 85.7036C545.651 84.4195 547.222 82.7102 548.694 80.8293ZM564.71 77.5931C567.37 75.6929 568.693 72.3285 569.012 70.8915L569.988 71.1085C569.641 72.6715 568.23 76.3071 565.291 78.4069C564.531 78.9497 563.826 80.0545 563.133 81.5389C562.557 82.7729 562.018 84.1994 561.468 85.6563C561.364 85.9316 561.26 86.208 561.155 86.4844C560.5 88.2079 559.816 89.9306 559.037 91.3062C558.27 92.6603 557.346 93.7984 556.154 94.1835C555.407 94.4248 554.193 95.0278 552.684 95.8754C551.187 96.7165 549.436 97.7784 547.629 98.9148C544.613 100.812 541.453 102.909 539.088 104.518C541.7 104.875 544.154 105.189 546.967 105.001C552.851 104.609 557.93 101.888 559.706 100.596L560.294 101.404C558.404 102.779 553.149 105.591 547.033 105.999C543.999 106.201 541.367 105.84 538.649 105.468C538.51 105.449 538.37 105.429 538.23 105.41C538.107 105.394 537.983 105.377 537.859 105.36C537.834 105.377 537.809 105.394 537.784 105.412L537.737 105.344C535.159 104.997 532.436 104.689 529.11 104.847C529.6 106.804 530.797 108.522 531.373 109.167L530.627 109.833C529.967 109.093 528.609 107.151 528.097 104.908C526.71 105.011 525.217 105.196 523.59 105.492C518.393 106.437 513.09 106.496 508.189 106.551C507.855 106.555 507.523 106.558 507.194 106.562C501.988 106.625 497.32 106.754 493.658 107.974L493.342 107.026C497.18 105.746 502.013 105.625 507.182 105.563C507.506 105.559 507.832 105.555 508.16 105.551C513.078 105.496 518.301 105.437 523.411 104.508C525.247 104.174 526.921 103.978 528.469 103.881C532.042 103.657 534.938 103.963 537.61 104.318C540.04 102.649 543.659 100.23 547.096 98.0683C548.91 96.9275 550.677 95.856 552.194 95.0036C553.699 94.1579 554.993 93.5076 555.846 93.2319C556.654 92.9709 557.418 92.1349 558.167 90.8133C558.903 89.5132 559.563 87.8586 560.22 86.1291C560.323 85.8583 560.426 85.5856 560.529 85.3124C561.078 83.8567 561.633 82.3875 562.227 81.1157C562.924 79.6224 563.719 78.3003 564.71 77.5931ZM563.216 95.3851C562.765 94.336 562.094 93.3783 561.62 92.8254L562.38 92.1746C562.906 92.7884 563.636 93.8307 564.134 94.9899C564.625 96.1306 564.94 97.4968 564.464 98.6857L563.536 98.3143C563.86 97.5032 563.675 96.4527 563.216 95.3851Z" fill="url(#paint7_linear_1240_66171)"/>
<path fill-rule="evenodd" clip-rule="evenodd" d="M493.302 30.5918C494.425 27.1291 496.48 25.2012 497.777 24.5528L498.224 25.4472C497.17 25.9741 495.209 27.7459 494.176 31.1454C493.841 32.2464 493.604 33.5186 493.527 34.9743C494.349 34.1955 495.095 33.563 495.697 33.1028L496.304 33.8972C494.546 35.2416 491.447 38.1723 488.915 41.9481C487.457 44.1236 486.195 46.5656 485.482 49.1338C485.391 49.4619 485.311 49.7862 485.241 50.1063C483.825 56.6174 486.706 61.4986 488.354 63.1465L487.647 63.8536C485.833 62.0394 482.871 56.9756 484.188 50.2608C482.95 49.6513 479.874 48.7779 475.582 49.4932C473.13 49.9019 470.674 51.9497 468.642 54.325C467.177 56.0381 465.978 57.8684 465.213 59.2358C465.626 59.4576 466.001 59.8003 466.333 60.1867C466.831 60.7673 467.289 61.5111 467.694 62.2956C468.505 63.8663 469.141 65.6741 469.481 66.8626L468.519 67.1374C468.192 65.9926 467.578 64.2504 466.806 62.7544C466.419 62.0056 466.002 61.3369 465.574 60.8383C465.136 60.3289 464.738 60.0576 464.402 59.9903C463.996 59.9091 463.394 59.939 462.643 60.0734C461.904 60.2057 461.067 60.4302 460.214 60.7015C458.509 61.2439 456.779 61.9606 455.71 62.454L455.291 61.546C456.388 61.0394 458.158 60.3061 459.911 59.7485C460.787 59.4698 461.669 59.2318 462.467 59.0891C463.095 58.9767 463.702 58.9173 464.223 58.9588C464.943 57.6419 466.078 55.869 467.48 54.156C465.551 53.0656 464.105 51.3498 463.072 49.6328C461.939 47.7499 461.277 45.8233 461.012 44.6064L461.989 44.3936C462.232 45.5101 462.855 47.3335 463.929 49.1172C464.941 50.7995 466.331 52.4089 468.14 53.3779C470.025 51.2359 472.373 49.2428 474.877 48.6194C474.577 47.3088 474.525 45.4253 474.575 43.5862C474.634 41.4506 474.836 39.2842 475.004 37.938L475.996 38.062C475.831 39.3825 475.633 41.5161 475.575 43.6138C475.523 45.4997 475.588 47.2871 475.861 48.4377C479.886 47.8527 482.91 48.5889 484.413 49.2622C484.447 49.1308 484.482 48.9987 484.519 48.8662C485.205 46.3938 486.368 44.0551 487.712 41.9603C486.395 41.5117 484.982 40.6711 483.725 39.7871C482.239 38.7423 480.92 37.5991 480.153 36.8599L480.847 36.1401C481.581 36.8473 482.861 37.9568 484.3 38.9691C485.631 39.9047 487.054 40.7261 488.286 41.0945C489.638 39.1235 491.13 37.3869 492.5 35.9853C492.501 34.3621 492.688 32.9242 492.998 31.6613C492.953 31.6682 492.907 31.6749 492.86 31.6815C492.416 31.7447 491.855 31.8062 491.209 31.8651C489.918 31.9831 488.271 32.0929 486.512 32.1868C482.995 32.3746 479.012 32.5 476.5 32.5C474.644 32.5 472.744 33.3554 471.094 34.4762C469.45 35.5923 468.11 36.9334 467.387 37.8166L467.258 37.9744L467.055 37.997C462.65 38.4864 460.254 39.8218 458.466 41.4905C457.559 42.337 456.799 43.2781 456.001 44.2804C455.966 44.3239 455.931 44.3676 455.896 44.4115C455.134 45.3682 454.332 46.3749 453.354 47.3536C450.302 50.4052 450.181 54.3524 450.491 55.902L449.51 56.098C449.35 55.2988 449.291 53.9905 449.576 52.4885C447.676 53.8268 445.26 55.5917 443.11 57.2926C441.79 58.3372 440.578 59.3521 439.649 60.2258C439.184 60.6629 438.797 61.0588 438.504 61.401C438.204 61.7522 438.033 62.0142 437.964 62.1857C437.112 64.3163 438.809 66.5 441 66.5C441.264 66.5 441.569 66.4664 441.907 66.4021C443.638 66.0732 445.934 65.0062 447.279 64.2856C446.754 63.1477 446.176 61.9701 445.553 60.7236L446.447 60.2764C447.149 61.6806 447.799 63.0078 448.383 64.2935C450.297 68.5146 451.5 72.3048 451.5 77C451.5 79.2695 452.367 81.2542 453.472 82.8249C454.578 84.3986 455.905 85.5286 456.769 86.0782L456.232 86.9218C455.262 86.3047 453.838 85.0848 452.654 83.4002C451.467 81.7125 450.5 79.5305 450.5 77C450.5 72.6789 449.444 69.1475 447.693 65.1985C446.36 65.908 444.136 66.9438 442.323 67.3377C441.657 68.5684 441.36 70.111 441.274 71.5917C441.185 73.1436 441.332 74.5753 441.491 75.4058L440.509 75.5942C440.335 74.6869 440.182 73.1726 440.276 71.5343C440.352 70.2104 440.592 68.7708 441.137 67.4978C441.091 67.4993 441.045 67.5 441 67.5C438.192 67.5 435.888 64.6837 437.036 61.8143C437.167 61.4858 437.427 61.1225 437.744 60.7514C438.069 60.3714 438.485 59.9481 438.964 59.4974C439.923 58.5956 441.16 57.5608 442.49 56.5084C445.041 54.4898 447.958 52.3865 449.962 50.9986C450.445 49.5453 451.278 48.0148 452.647 46.6465C453.584 45.7087 454.355 44.7417 455.123 43.7769C455.155 43.737 455.187 43.6971 455.219 43.6572C456.014 42.6594 456.816 41.663 457.784 40.7595C459.717 38.9551 462.274 37.5552 466.744 37.0261C467.543 36.0823 468.894 34.7611 470.532 33.6489C472.256 32.478 474.356 31.5 476.5 31.5C478.989 31.5 482.953 31.3754 486.459 31.1882C488.211 31.0946 489.845 30.9857 491.118 30.8693C491.756 30.811 492.298 30.7514 492.719 30.6915C492.971 30.6556 493.164 30.6216 493.302 30.5918ZM510.592 26.3763C511.356 26.0006 512.262 25.691 512.863 25.5192L513.137 26.4808C512.572 26.6424 511.727 26.9327 511.033 27.2738C510.684 27.4454 510.397 27.6184 510.204 27.7798C510.023 27.9323 510.002 28.0096 510 28.0091C510.002 28.6204 510.207 30.4416 510.375 31.8132C511.002 31.3285 511.713 30.9603 512.393 30.6866C513.364 30.2955 514.31 30.0824 514.938 30.0039L515.062 30.9961C514.516 31.0644 513.655 31.2565 512.766 31.6143C511.874 31.9733 510.993 32.4841 510.37 33.1688C510.202 33.3533 510.054 33.5493 509.929 33.7573C509.744 34.0652 509.572 34.3628 509.404 34.6542C508.907 35.5128 508.442 36.3183 507.77 37.182C506.861 38.3507 505.577 39.6294 503.307 41.3947C501.658 42.677 500.728 45.0611 500.267 47.6381C499.81 50.1929 499.835 52.8206 499.998 54.4503L499.003 54.5498C498.832 52.846 498.807 50.1238 499.283 47.462C499.755 44.8222 500.742 42.123 502.693 40.6053C504.924 38.8706 506.139 37.6493 506.98 36.568C507.607 35.7628 508.027 35.0366 508.512 34.1966C508.686 33.8961 508.868 33.5811 509.071 33.2428C509.192 33.0415 509.328 32.852 509.475 32.6739C509.303 31.3336 509 28.7946 509 28C509 27.5633 509.304 27.2298 509.561 27.0139C509.843 26.7775 510.212 26.5629 510.592 26.3763ZM524.221 31.1104C525.404 29.9999 526.816 29.0763 527.761 28.5611L528.24 29.439C527.351 29.9237 526.013 30.8001 524.905 31.8397C524.351 32.3591 523.868 32.9071 523.526 33.4553C523.182 34.0058 523 34.5261 523 35C523 35.0284 523 35.0571 522.999 35.0858C525.42 34.0445 528.689 33.93 531.825 34.2019C535.423 34.5138 538.972 35.3472 541.148 36.0225L540.852 36.9775C538.731 36.3195 535.254 35.5028 531.739 35.1981C528.277 34.898 524.897 35.1064 522.715 36.3393C522.383 37.2407 521.785 38.3108 521.092 39.4509C520.72 40.0642 520.313 40.7079 519.897 41.3664L519.884 41.3864C519.472 42.0399 519.049 42.7087 518.636 43.3846C517.8 44.7521 517.012 46.1338 516.433 47.4463C515.851 48.7654 515.5 49.9729 515.5 51C515.5 52.0891 515.548 53.2266 515.597 54.3879C515.604 54.5456 515.61 54.7037 515.617 54.8621C515.672 56.1823 515.719 57.5252 515.687 58.8247C515.624 61.4076 515.249 63.9123 513.907 65.7906L513.093 65.2094C514.252 63.5877 514.626 61.3424 514.688 58.8003C514.719 57.5373 514.672 56.224 514.618 54.9035C514.611 54.7459 514.605 54.588 514.598 54.4302C514.549 53.2717 514.5 52.1116 514.5 51C514.5 49.7682 514.915 48.4106 515.518 47.0427C516.124 45.6684 516.94 44.2415 517.783 42.863C518.2 42.1811 518.625 41.5073 519.037 40.8559L519.052 40.8324C519.469 40.1724 519.87 39.5362 520.238 38.9316C520.978 37.7124 521.555 36.6607 521.83 35.8408C521.947 35.493 522 35.2145 522 35C522 34.2739 522.276 33.5692 522.677 32.926C523.08 32.2804 523.628 31.666 524.221 31.1104ZM528.728 46.7315C528.911 44.9995 529.533 43.3104 530.053 42.2755L530.947 42.7245C530.467 43.6794 529.89 45.2516 529.722 46.8364C529.565 48.3262 529.779 49.7186 530.641 50.6676C532.356 50.1655 534.271 50.1216 536.582 50.5068C541.078 51.256 543.956 53.489 545.119 54.8445C549.537 52.0894 551.896 47.3873 552.522 45.353L553.478 45.6471C552.808 47.8254 550.342 52.7546 545.673 55.6776C546.523 57.3713 546.512 59.4842 546.18 61.4098C545.817 63.5244 545.049 65.5211 544.447 66.7236L543.553 66.2764C544.118 65.1456 544.85 63.2423 545.195 61.2402C545.541 59.227 545.478 57.2193 544.584 55.7782C543.817 54.7149 541.072 52.2688 536.418 51.4932C534.079 51.1033 532.249 51.187 530.656 51.7098C528.251 52.499 526.284 54.3201 523.891 57.3124L523.11 56.6877C525.311 53.9356 527.268 52.012 529.639 51.0223C528.728 49.7997 528.572 48.2041 528.728 46.7315ZM476.279 59.9541C475.872 58.8037 475.385 57.806 475.066 57.2481L475.934 56.7519C476.282 57.3607 476.795 58.413 477.222 59.6209C477.647 60.8238 478 62.2185 478 63.5C478 64.6222 478.479 66.8102 479.108 69.1532C479.686 71.3056 480.371 73.525 480.864 75.0291C484.644 75.1208 491.51 75.4083 495.217 75.5748C495.356 75.3644 495.538 75.1723 495.777 75.0528C496.104 74.8894 497.628 74.2003 499.794 73.3141C499.05 72.4044 498.54 71.1624 498.193 69.968C497.763 68.4828 497.558 66.9747 497.501 66.0301L498.499 65.9699C498.553 66.8517 498.747 68.2854 499.154 69.6894C499.53 70.9849 500.065 72.1777 500.777 72.9165C505.636 70.9719 513.04 68.3296 517.967 68.0011C521.597 67.7591 524.36 68.6898 526.243 69.8297C527.465 68.251 529.441 66.3832 531.434 64.6708C533.598 62.8108 535.819 61.1023 537.206 60.0953L537.794 60.9047C536.425 61.8977 534.226 63.5893 532.085 65.4292C530.118 67.12 528.232 68.9098 527.076 70.3869C527.944 71.0271 528.56 71.6888 528.916 72.2227L528.084 72.7774C527.757 72.2872 527.097 71.5861 526.09 70.9164C524.381 69.7811 521.7 68.7544 518.033 68.9989C513.188 69.322 505.722 72.0018 500.852 73.9638C498.333 74.9787 496.547 75.7856 496.224 75.9472C496.166 75.9761 496.064 76.0696 495.951 76.3049C495.789 76.6402 495.673 77.1222 495.599 77.6381C495.527 78.146 495.5 78.6482 495.5 79H494.5C494.5 78.6059 494.529 78.0561 494.609 77.4964C494.654 77.1884 494.715 76.865 494.8 76.5572C490.896 76.3832 484.05 76.0992 480.489 76.0207C479.886 76.0074 479.38 76 479 76C478.393 76 477.626 76.2367 476.719 76.702C475.821 77.1631 474.828 77.8261 473.782 78.6262C471.69 80.2262 469.431 82.3378 467.35 84.3756C466.476 85.2314 465.636 86.0716 464.854 86.8536C463.095 88.6119 462.274 90.0851 461.941 91.1826C461.604 92.2931 461.775 92.9856 461.929 93.2428L461.071 93.7573C460.726 93.1811 460.596 92.1735 460.984 90.8925C461.376 89.5982 462.305 87.9881 464.147 86.1465L464.148 86.1452C464.707 85.5861 465.298 84.9951 465.911 84.3891C464.657 84.1009 463.361 83.3665 462.222 82.5509C460.724 81.4793 459.397 80.195 458.627 79.3331L459.373 78.6669C460.103 79.4839 461.376 80.7161 462.804 81.7377C464.177 82.7205 465.608 83.4454 466.802 83.5132C468.847 81.5151 471.083 79.4314 473.175 77.8318C474.246 77.0124 475.291 76.3109 476.263 75.8123C477.226 75.318 478.161 75 479 75C479.229 75 479.499 75.0026 479.805 75.0074C479.319 73.5059 478.684 71.4316 478.142 69.4124C477.521 67.0967 477 64.7778 477 63.5C477 62.3815 476.687 61.1095 476.279 59.9541ZM460.414 71.1784C459.035 70.5374 457.698 70.1495 456.902 69.9903L457.098 69.0097C457.969 69.1839 459.382 69.596 460.836 70.2716C462.285 70.945 463.818 71.8999 464.884 73.1799C466.819 75.5017 469.578 77.061 470.697 77.5404L470.303 78.4596C469.088 77.939 466.181 76.2983 464.116 73.8201C463.183 72.7001 461.799 71.8217 460.414 71.1784ZM548.694 80.8293C551.638 77.0678 554.145 72.6747 555.55 69.7816L556.45 70.2185C555.022 73.1586 552.479 77.6156 549.481 81.4457C547.983 83.3607 546.36 85.1326 544.694 86.4808C543.035 87.824 541.294 88.7796 539.562 88.9961C537.207 89.2905 534.027 89.8458 530.442 90.4718C528.967 90.7294 527.423 90.9989 525.841 91.2672C520.428 92.1845 514.575 93.083 509.533 93.4117C507.533 93.542 505.654 93.5833 503.975 93.4994C498.473 93.2243 494.346 93.7118 491.074 94.2022C490.552 94.2805 490.048 94.3594 489.562 94.4357C487.624 94.7396 485.963 95 484.5 95C482.509 95 480.836 95.1267 479.426 95.6557C478.039 96.1756 476.879 97.0953 475.934 98.7481C474.377 101.473 473.658 104.77 473.496 106.062L472.504 105.938C472.676 104.563 473.423 101.127 475.066 98.2519C475.564 97.3801 476.126 96.6792 476.749 96.1184C476.183 95.7217 475.29 94.9974 474.147 93.8536C472.695 92.4019 470.814 92.3471 470.098 92.4903L469.902 91.5097C470.853 91.3196 473.105 91.3981 474.854 93.1465C476.235 94.5279 477.188 95.2283 477.584 95.4729C478.051 95.1645 478.548 94.9166 479.075 94.7193C480.664 94.1233 482.491 94 484.5 94C485.878 94 487.437 93.7559 489.364 93.4541C489.697 93.402 490.041 93.3482 490.397 93.2936C490.259 92.4905 490.183 91.2064 490.515 89.8787C490.9 88.3409 491 85.9918 491 85H492C492 86.0082 491.901 88.4591 491.485 90.1213C491.188 91.311 491.267 92.4683 491.386 93.1453C494.621 92.6737 498.688 92.2338 504.025 92.5006C505.528 92.5758 507.209 92.548 509.011 92.4421C509.049 91.5781 509.183 90.3273 509.45 89.1276C509.61 88.4065 509.822 87.6864 510.099 87.073C510.371 86.4715 510.732 85.9115 511.223 85.584C511.443 85.4373 511.706 85.1501 511.992 84.7316C512.273 84.3218 512.552 83.8224 512.814 83.291C513.34 82.2281 513.781 81.0751 514.026 80.3419L514.974 80.6581C514.719 81.4249 514.261 82.6219 513.711 83.7341C513.436 84.2901 513.134 84.8344 512.817 85.2965C512.507 85.7499 512.157 86.1627 511.777 86.416C511.519 86.5885 511.255 86.9442 511.011 87.4846C510.772 88.0131 510.578 88.6611 510.426 89.3447C510.183 90.4369 510.057 91.5756 510.015 92.3761C514.877 92.0239 520.46 91.1648 525.673 90.2812C527.238 90.0161 528.771 89.7484 530.24 89.4918C533.838 88.8636 537.058 88.3014 539.438 88.0039C540.906 87.8204 542.473 86.9927 544.065 85.7036C545.651 84.4195 547.222 82.7102 548.694 80.8293ZM564.71 77.5931C567.37 75.6929 568.693 72.3285 569.012 70.8915L569.988 71.1085C569.641 72.6715 568.23 76.3071 565.291 78.4069C564.531 78.9497 563.826 80.0545 563.133 81.5389C562.557 82.7729 562.018 84.1994 561.468 85.6563C561.364 85.9316 561.26 86.208 561.155 86.4844C560.5 88.2079 559.816 89.9306 559.037 91.3062C558.27 92.6603 557.346 93.7984 556.154 94.1835C555.407 94.4248 554.193 95.0278 552.684 95.8754C551.187 96.7165 549.436 97.7784 547.629 98.9148C544.613 100.812 541.453 102.909 539.088 104.518C541.7 104.875 544.154 105.189 546.967 105.001C552.851 104.609 557.93 101.888 559.706 100.596L560.294 101.404C558.404 102.779 553.149 105.591 547.033 105.999C543.999 106.201 541.367 105.84 538.649 105.468C538.51 105.449 538.37 105.429 538.23 105.41C538.107 105.394 537.983 105.377 537.859 105.36C537.834 105.377 537.809 105.394 537.784 105.412L537.737 105.344C535.159 104.997 532.436 104.689 529.11 104.847C529.6 106.804 530.797 108.522 531.373 109.167L530.627 109.833C529.967 109.093 528.609 107.151 528.097 104.908C526.71 105.011 525.217 105.196 523.59 105.492C518.393 106.437 513.09 106.496 508.189 106.551C507.855 106.555 507.523 106.558 507.194 106.562C501.988 106.625 497.32 106.754 493.658 107.974L493.342 107.026C497.18 105.746 502.013 105.625 507.182 105.563C507.506 105.559 507.832 105.555 508.16 105.551C513.078 105.496 518.301 105.437 523.411 104.508C525.247 104.174 526.921 103.978 528.469 103.881C532.042 103.657 534.938 103.963 537.61 104.318C540.04 102.649 543.659 100.23 547.096 98.0683C548.91 96.9275 550.677 95.856 552.194 95.0036C553.699 94.1579 554.993 93.5076 555.846 93.2319C556.654 92.9709 557.418 92.1349 558.167 90.8133C558.903 89.5132 559.563 87.8586 560.22 86.1291C560.323 85.8583 560.426 85.5856 560.529 85.3124C561.078 83.8567 561.633 82.3875 562.227 81.1157C562.924 79.6224 563.719 78.3003 564.71 77.5931ZM563.216 95.3851C562.765 94.336 562.094 93.3783 561.62 92.8254L562.38 92.1746C562.906 92.7884 563.636 93.8307 564.134 94.9899C564.625 96.1306 564.94 97.4968 564.464 98.6857L563.536 98.3143C563.86 97.5032 563.675 96.4527 563.216 95.3851Z" fill="url(#paint8_linear_1240_66171)"/>
<g opacity="0.5">
<path fill-rule="evenodd" clip-rule="evenodd" d="M456 215C457.105 215 458 215.895 458 217V292C458 293.105 457.105 294 456 294C454.895 294 454 293.105 454 292V217C454 215.895 454.895 215 456 215ZM463.5 215C464.605 215 465.5 215.895 465.5 217V292C465.5 293.105 464.605 294 463.5 294C462.395 294 461.5 293.105 461.5 292V217C461.5 215.895 462.395 215 463.5 215ZM472.5 217C472.5 215.895 471.605 215 470.5 215C469.395 215 468.5 215.895 468.5 217V292C468.5 293.105 469.395 294 470.5 294C471.605 294 472.5 293.105 472.5 292V217ZM477.5 215C478.605 215 479.5 215.895 479.5 217V292C479.5 293.105 478.605 294 477.5 294C476.395 294 475.5 293.105 475.5 292V217C475.5 215.895 476.395 215 477.5 215ZM487 217C487 215.895 486.105 215 485 215C483.895 215 483 215.895 483 217V292C483 293.105 483.895 294 485 294C486.105 294 487 293.105 487 292V217ZM492 215C493.105 215 494 215.895 494 217V292C494 293.105 493.105 294 492 294C490.895 294 490 293.105 490 292V217C490 215.895 490.895 215 492 215ZM501.5 217C501.5 215.895 500.605 215 499.5 215C498.395 215 497.5 215.895 497.5 217V292C497.5 293.105 498.395 294 499.5 294C500.605 294 501.5 293.105 501.5 292V217ZM507 215C508.105 215 509 215.895 509 217V292C509 293.105 508.105 294 507 294C505.895 294 505 293.105 505 292V217C505 215.895 505.895 215 507 215ZM516 217C516 215.895 515.105 215 514 215C512.895 215 512 215.895 512 217V292C512 293.105 512.895 294 514 294C515.105 294 516 293.105 516 292V217ZM521 215C522.105 215 523 215.895 523 217V292C523 293.105 522.105 294 521 294C519.895 294 519 293.105 519 292V217C519 215.895 519.895 215 521 215ZM530.5 217C530.5 215.895 529.605 215 528.5 215C527.395 215 526.5 215.895 526.5 217V292C526.5 293.105 527.395 294 528.5 294C529.605 294 530.5 293.105 530.5 292V217ZM535.5 215C536.605 215 537.5 215.895 537.5 217V292C537.5 293.105 536.605 294 535.5 294C534.395 294 533.5 293.105 533.5 292V217C533.5 215.895 534.395 215 535.5 215ZM544.5 217C544.5 215.895 543.605 215 542.5 215C541.395 215 540.5 215.895 540.5 217V292C540.5 293.105 541.395 294 542.5 294C543.605 294 544.5 293.105 544.5 292V217ZM549.5 215C550.605 215 551.5 215.895 551.5 217V292C551.5 293.105 550.605 294 549.5 294C548.395 294 547.5 293.105 547.5 292V217C547.5 215.895 548.395 215 549.5 215ZM559 217C559 215.895 558.105 215 557 215C555.895 215 555 215.895 555 217V292C555 293.105 555.895 294 557 294C558.105 294 559 293.105 559 292V217Z" fill="#A4CAFE"/>
<path fill-rule="evenodd" clip-rule="evenodd" d="M456 215C457.105 215 458 215.895 458 217V292C458 293.105 457.105 294 456 294C454.895 294 454 293.105 454 292V217C454 215.895 454.895 215 456 215ZM463.5 215C464.605 215 465.5 215.895 465.5 217V292C465.5 293.105 464.605 294 463.5 294C462.395 294 461.5 293.105 461.5 292V217C461.5 215.895 462.395 215 463.5 215ZM472.5 217C472.5 215.895 471.605 215 470.5 215C469.395 215 468.5 215.895 468.5 217V292C468.5 293.105 469.395 294 470.5 294C471.605 294 472.5 293.105 472.5 292V217ZM477.5 215C478.605 215 479.5 215.895 479.5 217V292C479.5 293.105 478.605 294 477.5 294C476.395 294 475.5 293.105 475.5 292V217C475.5 215.895 476.395 215 477.5 215ZM487 217C487 215.895 486.105 215 485 215C483.895 215 483 215.895 483 217V292C483 293.105 483.895 294 485 294C486.105 294 487 293.105 487 292V217ZM492 215C493.105 215 494 215.895 494 217V292C494 293.105 493.105 294 492 294C490.895 294 490 293.105 490 292V217C490 215.895 490.895 215 492 215ZM501.5 217C501.5 215.895 500.605 215 499.5 215C498.395 215 497.5 215.895 497.5 217V292C497.5 293.105 498.395 294 499.5 294C500.605 294 501.5 293.105 501.5 292V217ZM507 215C508.105 215 509 215.895 509 217V292C509 293.105 508.105 294 507 294C505.895 294 505 293.105 505 292V217C505 215.895 505.895 215 507 215ZM516 217C516 215.895 515.105 215 514 215C512.895 215 512 215.895 512 217V292C512 293.105 512.895 294 514 294C515.105 294 516 293.105 516 292V217ZM521 215C522.105 215 523 215.895 523 217V292C523 293.105 522.105 294 521 294C519.895 294 519 293.105 519 292V217C519 215.895 519.895 215 521 215ZM530.5 217C530.5 215.895 529.605 215 528.5 215C527.395 215 526.5 215.895 526.5 217V292C526.5 293.105 527.395 294 528.5 294C529.605 294 530.5 293.105 530.5 292V217ZM535.5 215C536.605 215 537.5 215.895 537.5 217V292C537.5 293.105 536.605 294 535.5 294C534.395 294 533.5 293.105 533.5 292V217C533.5 215.895 534.395 215 535.5 215ZM544.5 217C544.5 215.895 543.605 215 542.5 215C541.395 215 540.5 215.895 540.5 217V292C540.5 293.105 541.395 294 542.5 294C543.605 294 544.5 293.105 544.5 292V217ZM549.5 215C550.605 215 551.5 215.895 551.5 217V292C551.5 293.105 550.605 294 549.5 294C548.395 294 547.5 293.105 547.5 292V217C547.5 215.895 548.395 215 549.5 215ZM559 217C559 215.895 558.105 215 557 215C555.895 215 555 215.895 555 217V292C555 293.105 555.895 294 557 294C558.105 294 559 293.105 559 292V217Z" fill="url(#paint9_linear_1240_66171)"/>
</g>
<path d="M0 65H264V218C264 220.209 262.209 222 260 222H4C1.79086 222 0 220.209 0 218V65Z" fill="#E1EFFE"/>
<path d="M0 54C0 51.7909 1.79086 50 4 50H260C262.209 50 264 51.7909 264 54V65H0V54Z" fill="#E1EFFE"/>
<path fill-rule="evenodd" clip-rule="evenodd" d="M0 64.5H264V65.5H0V64.5Z" fill="#A4CAFE"/>
<path d="M15 57C15 58.6569 13.6569 60 12 60C10.3431 60 9 58.6569 9 57C9 55.3431 10.3431 54 12 54C13.6569 54 15 55.3431 15 57Z" fill="#A4CAFE"/>
<path d="M26 57C26 58.6569 24.6569 60 23 60C21.3431 60 20 58.6569 20 57C20 55.3431 21.3431 54 23 54C24.6569 54 26 55.3431 26 57Z" fill="#A4CAFE"/>
<path d="M37 57C37 58.6569 35.6569 60 34 60C32.3431 60 31 58.6569 31 57C31 55.3431 32.3431 54 34 54C35.6569 54 37 55.3431 37 57Z" fill="#A4CAFE"/>
<path d="M65 95.5C65 100.747 60.7467 105 55.5 105C50.2533 105 46 100.747 46 95.5C46 90.2533 50.2533 86 55.5 86C60.7467 86 65 90.2533 65 95.5Z" fill="#A4CAFE"/>
<path d="M73 91C73 85.4772 77.4772 81 83 81H180C185.523 81 190 85.4772 190 91V100C190 105.523 185.523 110 180 110H83C77.4772 110 73 105.523 73 100V91Z" fill="#F9FAFB"/>
<path d="M198 132.5C198 137.747 202.253 142 207.5 142C212.747 142 217 137.747 217 132.5C217 127.253 212.747 123 207.5 123C202.253 123 198 127.253 198 132.5Z" fill="#A4CAFE"/>
<path d="M190 128C190 122.477 185.523 118 180 118H83C77.4771 118 73 122.477 73 128V195C73 200.523 77.4771 205 83 205H180C185.523 205 190 200.523 190 195V128Z" fill="#F9FAFB"/>
<path d="M83 95C83 93.8954 83.8954 93 85 93H135C136.105 93 137 93.8954 137 95C137 96.1046 136.105 97 135 97H85C83.8954 97 83 96.1046 83 95Z" fill="#A4CAFE"/>
<path d="M83 132C83 130.895 83.8954 130 85 130H135C136.105 130 137 130.895 137 132C137 133.105 136.105 134 135 134H85C83.8954 134 83 133.105 83 132Z" fill="#A4CAFE"/>
<path d="M83 142C83 140.895 83.8954 140 85 140H147C148.105 140 149 140.895 149 142C149 143.105 148.105 144 147 144H85C83.8954 144 83 143.105 83 142Z" fill="#A4CAFE"/>
<path d="M83 152C83 150.895 83.8954 150 85 150H126C127.105 150 128 150.895 128 152C128 153.105 127.105 154 126 154H85C83.8954 154 83 153.105 83 152Z" fill="#A4CAFE"/>
<path d="M83 162C83 160.895 83.8954 160 85 160H156C157.105 160 158 160.895 158 162C158 163.105 157.105 164 156 164H85C83.8954 164 83 163.105 83 162Z" fill="#A4CAFE"/>
<path fill-rule="evenodd" clip-rule="evenodd" d="M214.533 138.887C213.472 136.033 210.723 134 207.5 134C204.277 134 201.529 136.033 200.468 138.887C202.206 140.799 204.713 142 207.5 142C210.288 142 212.795 140.799 214.533 138.887ZM210 130.5C210 131.881 208.881 133 207.5 133C206.119 133 205 131.881 205 130.5C205 129.119 206.119 128 207.5 128C208.881 128 210 129.119 210 130.5Z" fill="#1C64F2" fill-opacity="0.5"/>
<path fill-rule="evenodd" clip-rule="evenodd" d="M62.0648 101.887C61.004 99.0333 58.2556 97 55.0324 97C51.8091 97 49.0607 99.0333 48 101.887C49.7378 103.799 52.2449 105 55.0324 105C57.8199 105 60.3269 103.799 62.0648 101.887ZM57.5324 93.5C57.5324 94.8807 56.4131 96 55.0324 96C53.6517 96 52.5324 94.8807 52.5324 93.5C52.5324 92.1193 53.6517 91 55.0324 91C56.4131 91 57.5324 92.1193 57.5324 93.5Z" fill="#1C64F2" fill-opacity="0.5"/>
<path d="M336.667 493C338.267 484.6 337 474.167 336.167 470L358.667 453L373.667 483L334.167 522.5C331.167 516 334.667 503.5 336.667 493Z" fill="#E1EFFE"/>
<path d="M336.667 493C338.267 484.6 337 474.167 336.167 470L358.667 453L373.667 483L334.167 522.5C331.167 516 334.667 503.5 336.667 493Z" fill="url(#paint10_linear_1240_66171)"/>
<path d="M336.352 525.622L334.167 522.5L373.667 483L377.26 488.59C377.785 489.406 377.649 490.48 376.937 491.139L339.349 525.942C338.46 526.766 337.047 526.615 336.352 525.622Z" fill="#00BBE5"/>
<path d="M362.667 476.5C362.667 479.538 360.205 482 357.167 482C354.129 482 351.667 479.538 351.667 476.5C351.667 473.462 354.129 471 357.167 471C360.205 471 362.667 473.462 362.667 476.5Z" fill="#A4CAFE"/>
<path d="M243.382 261.093C251.361 255.639 264.9 253.43 271.499 253L272.499 264H244.473C242.744 264 241.955 262.068 243.382 261.093Z" fill="#FDBA8C"/>
<path d="M243.382 261.093C251.361 255.639 264.9 253.43 271.499 253L272.499 264H244.473C242.744 264 241.955 262.068 243.382 261.093Z" fill="url(#paint11_linear_1240_66171)"/>
<path fill-rule="evenodd" clip-rule="evenodd" d="M109 587.5V273H111V587.5H109Z" fill="#A4CAFE"/>
<path fill-rule="evenodd" clip-rule="evenodd" d="M258 587.5V273H260V587.5H258Z" fill="#A4CAFE"/>
<path fill-rule="evenodd" clip-rule="evenodd" d="M343 587.5V273H345V587.5H343Z" fill="#A4CAFE"/>
<path d="M100 271C100 269.895 100.895 269 102 269H356C357.105 269 358 269.895 358 271V277C358 278.105 357.105 279 356 279H102C100.895 279 100 278.105 100 277V271Z" fill="#E1EFFE"/>
<path d="M100 271C100 269.895 100.895 269 102 269H356C357.105 269 358 269.895 358 271V277C358 278.105 357.105 279 356 279H102C100.895 279 100 278.105 100 277V271Z" fill="url(#paint12_linear_1240_66171)"/>
<path d="M100 271C100 269.895 100.895 269 102 269H267C268.105 269 269 269.895 269 271V277C269 278.105 268.105 279 267 279H102C100.895 279 100 278.105 100 277V271Z" fill="#E1EFFE"/>
<path d="M355.5 89.5C349.5 92.3 346.667 97.6666 346 100L349 110L394.5 177.5L416.672 169.518C418.017 169.034 418.439 167.343 417.472 166.292C409.469 157.588 395.096 142.096 388.5 135.5C379.5 126.5 381.5 107 378.5 97.5C375.5 88 363 86 355.5 89.5Z" fill="#111928"/>
<path d="M364.5 151L356.5 130C359.5 122.833 365.5 111.1 365.5 121.5C365.5 131.9 374.167 141.5 378.5 145L364.5 151Z" fill="#FDBA8C"/>
<path d="M364.5 151L356.5 130C359.5 122.833 365.5 111.1 365.5 121.5C365.5 131.9 374.167 141.5 378.5 145L364.5 151Z" fill="url(#paint13_linear_1240_66171)"/>
<path d="M370.281 114.303C366.71 122.87 359.08 136.099 352 132C349.148 130.349 347.428 126.675 346.452 122.263C346.397 122.011 345.551 122.257 345.5 122C345.36 121.295 346.03 120.073 345.925 119.34C344.947 112.564 345.365 104.809 346 100C353.5 102 360 113.5 362 113C362.892 112.777 364.136 111.922 365.265 111.007C366.554 109.962 368.451 109.951 369.625 111.125C370.462 111.962 370.736 113.211 370.281 114.303Z" fill="#FDBA8C"/>
<path d="M351.782 114.814C351.877 115.381 351.496 115.917 350.93 116.013C350.363 116.109 349.827 115.727 349.731 115.161C349.635 114.595 350.017 114.058 350.583 113.962C351.149 113.867 351.686 114.248 351.782 114.814Z" fill="#111928"/>
<path fill-rule="evenodd" clip-rule="evenodd" d="M349.96 111.126C349.237 111.258 348.7 111.663 348.216 112.188C348.029 112.391 347.713 112.404 347.51 112.217C347.307 112.03 347.294 111.714 347.481 111.511C348.039 110.904 348.759 110.328 349.781 110.142C350.798 109.957 352.03 110.174 353.589 110.965C353.835 111.09 353.933 111.391 353.808 111.637C353.683 111.883 353.382 111.982 353.136 111.857C351.693 111.124 350.689 110.994 349.96 111.126Z" fill="#111928"/>
<path fill-rule="evenodd" clip-rule="evenodd" d="M346.663 114.275C346.936 114.316 347.124 114.571 347.084 114.844L346.066 121.647C346.047 121.769 346.146 121.876 346.268 121.869L349.21 121.691C349.486 121.674 349.723 121.884 349.739 122.16C349.756 122.435 349.546 122.672 349.27 122.689L346.329 122.867C345.571 122.913 344.964 122.25 345.077 121.499L346.095 114.696C346.135 114.423 346.39 114.235 346.663 114.275Z" fill="#111928"/>
<path fill-rule="evenodd" clip-rule="evenodd" d="M350.256 125.727C350.876 125.58 351.516 125.317 352.49 124.89C352.743 124.779 353.038 124.895 353.149 125.147C353.26 125.4 353.145 125.695 352.892 125.806C351.926 126.229 351.207 126.529 350.487 126.7C349.754 126.874 349.041 126.91 348.078 126.845C347.803 126.826 347.595 126.588 347.613 126.312C347.632 126.037 347.871 125.829 348.146 125.847C349.044 125.908 349.65 125.871 350.256 125.727Z" fill="#111928"/>
<path fill-rule="evenodd" clip-rule="evenodd" d="M367.272 115.859C367.558 115.182 367.512 114.51 367.337 113.818C367.27 113.55 367.432 113.278 367.7 113.211C367.967 113.143 368.239 113.305 368.307 113.573C368.509 114.373 368.598 115.29 368.194 116.247C367.792 117.2 366.937 118.113 365.422 118.984C365.182 119.122 364.877 119.039 364.739 118.8C364.601 118.561 364.684 118.255 364.923 118.117C366.326 117.31 366.985 116.541 367.272 115.859Z" fill="#111928"/>
<path d="M419 520L363 520L363 512L419 512L419 520Z" fill="#A4CAFE"/>
<path d="M423 320C424.105 320 425 320.895 425 322L425 585C425 586.105 424.105 587 423 587L419 587C417.895 587 417 586.105 417 585L417 322C417 320.895 417.895 320 419 320L423 320Z" fill="#A4CAFE"/>
<path d="M423 320C424.105 320 425 320.895 425 322L425 585C425 586.105 424.105 587 423 587L419 587C417.895 587 417 586.105 417 585L417 322C417 320.895 417.895 320 419 320L423 320Z" fill="url(#paint14_linear_1240_66171)"/>
<path d="M363 320C364.105 320 365 320.895 365 322L365 585C365 586.105 364.105 587 363 587L359 587C357.895 587 357 586.105 357 585L357 322C357 320.895 357.895 320 359 320L363 320Z" fill="#A4CAFE"/>
<path d="M363 320C364.105 320 365 320.895 365 322L365 585C365 586.105 364.105 587 363 587L359 587C357.895 587 357 586.105 357 585L357 322C357 320.895 357.895 320 359 320L363 320Z" fill="url(#paint15_linear_1240_66171)"/>
<path d="M340 318C340 315.791 341.791 314 344 314H430C432.209 314 434 315.791 434 318V330C434 332.209 432.209 334 430 334H344C341.791 334 340 332.209 340 330V318Z" fill="#A4CAFE"/>
<path d="M340 318C340 315.791 341.791 314 344 314H430C432.209 314 434 315.791 434 318V330C434 332.209 432.209 334 430 334H344C341.791 334 340 332.209 340 330V318Z" fill="url(#paint16_linear_1240_66171)"/>
<path d="M335 504C336.6 495.6 335.333 485.167 334.5 481L357 464L372 494L332.5 533.5C329.5 527 333 514.5 335 504Z" fill="#E1EFFE"/>
<path d="M335 504C336.6 495.6 335.333 485.167 334.5 481L357 464L372 494L332.5 533.5C329.5 527 333 514.5 335 504Z" fill="url(#paint17_linear_1240_66171)"/>
<path d="M334.685 536.622L332.5 533.5L372 494L375.594 499.59C376.118 500.406 375.982 501.48 375.27 502.139L337.682 536.942C336.793 537.766 335.38 537.615 334.685 536.622Z" fill="#00BBE5"/>
<path d="M361 487.5C361 490.538 358.538 493 355.5 493C352.462 493 350 490.538 350 487.5C350 484.462 352.462 482 355.5 482C358.538 482 361 484.462 361 487.5Z" fill="#A4CAFE"/>
<path d="M354.5 281.5L356 255C365.5 245.833 388.6 231.5 405 247.5C415.969 258.201 421.436 275.315 423.854 289.415C425.698 300.172 419.574 310.279 410.024 315.563L327 361.5L363.966 459.091C364.283 459.925 364.008 460.868 363.293 461.402L329.132 486.909C328.065 487.705 326.532 487.257 326.063 486.011L285.08 377.123C279.598 362.558 283.551 346.123 295.056 335.644L354.5 281.5Z" fill="#00BBE5"/>
<path d="M354.5 281.5L356 255C365.5 245.833 388.6 231.5 405 247.5C415.969 258.201 421.436 275.315 423.854 289.415C425.698 300.172 419.574 310.279 410.024 315.563L327 361.5L363.966 459.091C364.283 459.925 364.008 460.868 363.293 461.402L329.132 486.909C328.065 487.705 326.532 487.257 326.063 486.011L285.08 377.123C279.598 362.558 283.551 346.123 295.056 335.644L354.5 281.5Z" fill="url(#paint18_linear_1240_66171)"/>
<path fill-rule="evenodd" clip-rule="evenodd" d="M356 255L354.5 281.5L296.319 334.493L369 279V255H356C356 255 356 255 356 255Z" fill="url(#paint19_linear_1240_66171)"/>
<path fill-rule="evenodd" clip-rule="evenodd" d="M322.417 476.322L321.684 474.374L359.152 446.38L359.889 448.326L322.417 476.322Z" fill="#A4CAFE"/>
<path d="M413.462 248.568L402.5 199L381.5 251H411.509C412.788 251 413.738 249.817 413.462 248.568Z" fill="#F9FAFB"/>
<path d="M413.462 248.568L402.5 199L381.5 251H411.509C412.788 251 413.738 249.817 413.462 248.568Z" fill="url(#paint20_linear_1240_66171)"/>
<path d="M272.764 244.35L273.206 247.441C273.367 248.565 274.429 249.33 275.546 249.126L361 233.5L357 224.5L274.328 242.111C273.299 242.33 272.616 243.308 272.764 244.35Z" fill="#F9FAFB"/>
<path d="M272.764 244.35L273.206 247.441C273.367 248.565 274.429 249.33 275.546 249.126L361 233.5L357 224.5L274.328 242.111C273.299 242.33 272.616 243.308 272.764 244.35Z" fill="url(#paint21_linear_1240_66171)" fill-opacity="0.5"/>
<path d="M390 154C386.4 151.2 379.5 145.5 376.5 143L362.5 148C359.333 156.333 352.8 175.8 352 187C351.2 198.2 354.666 219.667 356.5 229L270.806 245.159C269.785 245.352 269.081 246.295 269.187 247.329L270.807 263.121C270.915 264.176 271.827 264.963 272.886 264.915L371.165 260.508C378.195 260.193 384.575 256.229 387.552 249.852C394.731 234.478 403.682 211.424 404 196.5C404.5 173 394.5 157.5 390 154Z" fill="#F9FAFB"/>
<path d="M390 154C386.4 151.2 379.5 145.5 376.5 143L362.5 148C359.333 156.333 352.8 175.8 352 187C351.2 198.2 354.666 219.667 356.5 229L270.806 245.159C269.785 245.352 269.081 246.295 269.187 247.329L270.807 263.121C270.915 264.176 271.827 264.963 272.886 264.915L371.165 260.508C378.195 260.193 384.575 256.229 387.552 249.852C394.731 234.478 403.682 211.424 404 196.5C404.5 173 394.5 157.5 390 154Z" fill="url(#paint22_linear_1240_66171)"/>
<path d="M221 264H307V269H221V264Z" fill="#A4CAFE"/>
<path d="M209.858 198.846C209.348 197.156 207.792 196 206.028 196H119.692C118.351 196 117.39 197.293 117.777 198.577L139 269H231L209.858 198.846Z" fill="#00BBE5"/>
<path d="M209.858 198.846C209.348 197.156 207.792 196 206.028 196H119.692C118.351 196 117.39 197.293 117.777 198.577L139 269H231L209.858 198.846Z" fill="url(#paint23_linear_1240_66171)"/>
<path d="M178.141 232.834C178.772 234.951 177.492 236.667 175.283 236.667C173.074 236.667 170.772 234.951 170.141 232.834C169.511 230.716 170.791 229 173 229C175.209 229 177.511 230.716 178.141 232.834Z" fill="#E1EFFE"/>
<path fill-rule="evenodd" clip-rule="evenodd" d="M356.494 228.967L366.701 227.031C368.377 226.713 369.666 225.368 369.913 223.68L375.501 185.5L351.887 189.928C351.755 201.6 354.809 220.378 356.494 228.967Z" fill="url(#paint24_linear_1240_66171)"/>
<defs>
<linearGradient id="paint0_linear_1240_66171" x1="506.5" y1="38.438" x2="506.5" y2="629.197" gradientUnits="userSpaceOnUse">
<stop stop-color="#F9FAFB"/>
<stop offset="1" stop-color="#F9FAFB" stop-opacity="0"/>
</linearGradient>
<linearGradient id="paint1_linear_1240_66171" x1="506.5" y1="263.5" x2="506.5" y2="31" gradientUnits="userSpaceOnUse">
<stop stop-color="#A4CAFE"/>
<stop offset="1" stop-color="#A4CAFE" stop-opacity="0"/>
</linearGradient>
<linearGradient id="paint2_linear_1240_66171" x1="533" y1="107" x2="508" y2="133.5" gradientUnits="userSpaceOnUse">
<stop stop-color="#A4CAFE"/>
<stop offset="1" stop-color="#A4CAFE" stop-opacity="0"/>
</linearGradient>
<linearGradient id="paint3_linear_1240_66171" x1="513.75" y1="87" x2="513.75" y2="144" gradientUnits="userSpaceOnUse">
<stop stop-color="#1C64F2"/>
<stop offset="1" stop-color="#1C64F2" stop-opacity="0"/>
</linearGradient>
<linearGradient id="paint4_linear_1240_66171" x1="568" y1="90.5" x2="564.488" y2="127.398" gradientUnits="userSpaceOnUse">
<stop stop-color="#A4CAFE"/>
<stop offset="1" stop-color="#A4CAFE" stop-opacity="0"/>
</linearGradient>
<linearGradient id="paint5_linear_1240_66171" x1="549" y1="95.5" x2="538.538" y2="131.137" gradientUnits="userSpaceOnUse">
<stop stop-color="#1C64F2"/>
<stop offset="1" stop-color="#1C64F2" stop-opacity="0"/>
</linearGradient>
<linearGradient id="paint6_linear_1240_66171" x1="503.201" y1="-36" x2="503.201" y2="89.5" gradientUnits="userSpaceOnUse">
<stop stop-color="#1C64F2"/>
<stop offset="1" stop-color="#1C64F2" stop-opacity="0"/>
</linearGradient>
<linearGradient id="paint7_linear_1240_66171" x1="503.369" y1="132.5" x2="501.5" y2="68.5" gradientUnits="userSpaceOnUse">
<stop stop-color="#A4CAFE"/>
<stop offset="1" stop-color="#A4CAFE" stop-opacity="0"/>
</linearGradient>
<linearGradient id="paint8_linear_1240_66171" x1="503.369" y1="25" x2="503.369" y2="158.5" gradientUnits="userSpaceOnUse">
<stop stop-color="#1C64F2"/>
<stop offset="1" stop-color="#1C64F2" stop-opacity="0"/>
</linearGradient>
<linearGradient id="paint9_linear_1240_66171" x1="506.5" y1="160.5" x2="506.5" y2="278.5" gradientUnits="userSpaceOnUse">
<stop stop-color="#1C64F2"/>
<stop offset="1" stop-color="#1C64F2" stop-opacity="0"/>
</linearGradient>
<linearGradient id="paint10_linear_1240_66171" x1="348.667" y1="440" x2="377.815" y2="471.446" gradientUnits="userSpaceOnUse">
<stop stop-color="#A4CAFE"/>
<stop offset="1" stop-color="#A4CAFE" stop-opacity="0"/>
</linearGradient>
<linearGradient id="paint11_linear_1240_66171" x1="299.499" y1="242.5" x2="256.249" y2="264" gradientUnits="userSpaceOnUse">
<stop stop-color="#7F270F"/>
<stop offset="1" stop-color="#7F270F" stop-opacity="0"/>
</linearGradient>
<linearGradient id="paint12_linear_1240_66171" x1="229" y1="269" x2="430.5" y2="269" gradientUnits="userSpaceOnUse">
<stop stop-color="#A4CAFE"/>
<stop offset="1" stop-color="#A4CAFE" stop-opacity="0"/>
</linearGradient>
<linearGradient id="paint13_linear_1240_66171" x1="367.5" y1="90.5" x2="367.5" y2="151" gradientUnits="userSpaceOnUse">
<stop stop-color="#7F270F"/>
<stop offset="1" stop-color="#7F270F" stop-opacity="0"/>
</linearGradient>
<linearGradient id="paint14_linear_1240_66171" x1="396" y1="126" x2="396" y2="453" gradientUnits="userSpaceOnUse">
<stop stop-color="#1C64F2"/>
<stop offset="1" stop-color="#1C64F2" stop-opacity="0"/>
</linearGradient>
<linearGradient id="paint15_linear_1240_66171" x1="336" y1="126" x2="336" y2="453" gradientUnits="userSpaceOnUse">
<stop stop-color="#1C64F2"/>
<stop offset="1" stop-color="#1C64F2" stop-opacity="0"/>
</linearGradient>
<linearGradient id="paint16_linear_1240_66171" x1="313.5" y1="319.5" x2="368.5" y2="373.5" gradientUnits="userSpaceOnUse">
<stop stop-color="#1C64F2"/>
<stop offset="1" stop-color="#1C64F2" stop-opacity="0"/>
</linearGradient>
<linearGradient id="paint17_linear_1240_66171" x1="347" y1="451" x2="376.148" y2="482.446" gradientUnits="userSpaceOnUse">
<stop stop-color="#A4CAFE"/>
<stop offset="1" stop-color="#A4CAFE" stop-opacity="0"/>
</linearGradient>
<linearGradient id="paint18_linear_1240_66171" x1="350.75" y1="128" x2="350.75" y2="376.5" gradientUnits="userSpaceOnUse">
<stop stop-color="#111928"/>
<stop offset="1" stop-color="#111928" stop-opacity="0"/>
</linearGradient>
<linearGradient id="paint19_linear_1240_66171" x1="276" y1="297.5" x2="349" y2="250" gradientUnits="userSpaceOnUse">
<stop stop-color="#111928"/>
<stop offset="1" stop-color="#111928" stop-opacity="0"/>
</linearGradient>
<linearGradient id="paint20_linear_1240_66171" x1="362.5" y1="235.5" x2="431.5" y2="322.5" gradientUnits="userSpaceOnUse">
<stop stop-color="#A4CAFE"/>
<stop offset="1" stop-color="#A4CAFE" stop-opacity="0"/>
</linearGradient>
<linearGradient id="paint21_linear_1240_66171" x1="361" y1="259" x2="230.182" y2="230.564" gradientUnits="userSpaceOnUse">
<stop stop-color="#A4CAFE"/>
<stop offset="1" stop-color="#A4CAFE" stop-opacity="0"/>
</linearGradient>
<linearGradient id="paint22_linear_1240_66171" x1="407" y1="26.5" x2="288" y2="237" gradientUnits="userSpaceOnUse">
<stop stop-color="#A4CAFE"/>
<stop offset="1" stop-color="#A4CAFE" stop-opacity="0"/>
</linearGradient>
<linearGradient id="paint23_linear_1240_66171" x1="159" y1="118.5" x2="174" y2="269" gradientUnits="userSpaceOnUse">
<stop stop-color="#A4CAFE"/>
<stop offset="1" stop-color="#A4CAFE" stop-opacity="0"/>
</linearGradient>
<linearGradient id="paint24_linear_1240_66171" x1="352" y1="247.5" x2="332.733" y2="222.384" gradientUnits="userSpaceOnUse">
<stop stop-color="#A4CAFE"/>
<stop offset="1" stop-color="#A4CAFE" stop-opacity="0"/>
</linearGradient>
</defs>
</svg>
