<svg width="659" height="618" viewBox="0 0 659 618" fill="none" xmlns="http://www.w3.org/2000/svg">
<g filter="url(#filter0_n_1236_12387)">
<path d="M151.892 583.422L148.026 576.726C147.342 573.769 146.153 570.668 145.721 567.751C144.744 561.153 146.826 552.674 150.31 547.073C154.865 539.633 162.189 534.307 170.672 532.268C179.226 530.277 188.222 531.873 195.569 536.684C199.261 539.061 201.912 542.032 204.609 545.634C209.443 552.09 213.215 566.346 223.483 564.468C227.483 563.736 236.196 558.195 240.122 555.927L273.438 536.667C281.244 532.154 295.872 522.566 303.899 520.755C312.441 518.829 320.837 520.072 328.335 524.684C332.094 526.995 335.425 530.424 337.91 534.052C342.654 540.977 346.939 555.106 357.611 552.724C361.606 551.832 387.001 536.881 390.586 533.921C393.579 531.432 396.128 528.453 398.123 525.111C398.837 523.92 399.37 522.797 399.922 521.527C407.474 504.138 397.177 490.934 388.746 476.345L373.912 450.696L346.63 466.447C340.044 470.258 330.475 476.761 323.445 478.606C318.05 480.021 312.214 479.648 306.874 478.196C285.291 472.325 283.307 447.262 275.185 444.566C272.967 443.83 270.577 445.169 268.686 446.231C251.412 455.935 234.352 466.11 217.193 476.023C210.371 479.963 199.007 487.472 191.949 489.637C185.81 491.521 179.621 491.539 173.444 489.825C157.354 485.361 152.478 470.063 144.337 457.39C142.386 456.412 140.624 455.408 138.456 456.312C135.912 457.372 132.235 459.551 129.898 461.006C116.706 469.222 106.498 474.019 91.0426 467.172C84.6846 464.356 83.938 461.957 79.118 457.374L75.3782 450.897C74.6786 448.321 73.5149 444.996 73.1015 442.511C71.983 435.462 73.6917 427.742 77.2412 421.611C82.4361 412.643 91.8916 408.266 100.471 403.257C103.849 401.284 109.252 399.313 107.623 394.389C106.505 391.006 104.368 388.069 102.651 384.955C94.2512 371.589 89.8773 360.776 97.206 345.614C98.7301 342.46 103.001 337.323 105.894 335.259C112.622 330.459 120.992 325.998 128.247 321.818L168.764 298.416C170.933 297.164 173.458 295.834 175.473 294.575C179.228 292.234 186.693 289.873 184.136 284.071C178.561 271.421 169.651 264.224 170.279 249.469C170.496 245.209 171.54 241.033 173.352 237.171C175.403 232.942 178.307 229.181 181.886 226.134C185.958 222.697 193.296 218.913 198.121 216.059C208.086 210.161 218.423 204.547 228.341 198.581L212.744 171.53C205.449 158.869 200.103 145.814 184.49 141.853C170.62 138.334 162.514 143.414 151.008 150.116L137.024 158.144C133.832 160.013 130.458 162.518 129.54 166.307C126.612 178.38 148.635 190.318 139.422 214.072C136.876 220.484 132.371 225.93 126.547 229.63C121.263 233.046 114.155 236.887 108.639 240.065L75.5728 259.13C70.1762 262.242 61.7504 266.421 57.0238 270.154C54.9233 271.813 53.3851 273.446 52.7941 276.15C50.1017 288.484 71.5118 299.01 62.8553 323.306C60.637 329.532 56.1899 335.04 50.7227 338.715C43.6475 343.472 34.9403 345.54 26.5125 343.866C20.8015 342.73 15.3269 340.302 11.0986 336.249C9.48299 334.701 8.0586 332.918 6.4021 331.427L2.53585 324.73C1.84696 321.817 0.638696 318.81 0.242882 315.924C-0.703543 309.028 1.19567 301.392 4.54489 295.521C10.9111 284.13 23.7581 280.592 33.7087 273.442C34.9779 272.532 35.7134 270.26 35.1362 268.891C29.2632 254.959 18.048 245.624 21.3125 228.838C22.0072 225.106 23.3451 221.522 25.2675 218.246C31.0636 208.334 45.9268 201.429 55.9579 195.638L96.7513 172.128C101.172 169.58 106.861 166.639 110.769 163.619C114.232 160.94 108.337 151.746 106.683 149.291C97.79 136.086 93.7009 123.835 101.756 108.861C104.528 103.71 107.194 102.866 110.518 98.7877L257.233 14.0817C259.606 13.4733 263.45 12.14 265.766 11.8495C276.122 10.4679 288.68 15.0728 294.92 23.6118C297.86 27.6368 302.078 35.1017 304.43 39.4993C310.605 51.0418 313.296 46.6598 322.57 41.7094C324.434 40.7152 326.638 39.3606 328.573 38.2399L363.133 18.2507C371.926 13.1674 388.354 2.48481 397.322 0.591881C404.626 -0.950358 412.686 0.608052 419.128 4.25861C428.196 9.3927 432.56 18.6961 437.523 27.3907C438.851 29.7185 440.098 32.3619 442.177 34.1214C443.257 35.037 444.522 35.2615 445.894 35.3358L446.26 35.1903C453.572 32.2547 460.939 26.1278 468.253 23.1157C476.069 19.8965 485.279 20.0032 493.01 23.2937C500.792 26.4399 501.052 28.744 506.364 33.3855L510.56 40.653C510.856 42.1325 511.405 43.5777 511.767 45.0456C513.218 50.9641 513.326 56.3292 511.644 62.2256C509.213 70.7567 503.397 77.6652 495.639 81.888C489.826 85.0506 482.658 86.4002 476.094 85.4051C449.837 81.4275 451.515 56.1662 438.911 52.7952C436.366 52.1152 434.282 52.6388 431.903 53.5824C429.371 54.5849 426.935 56.2246 424.575 57.5872L412.499 64.5723C396.2 73.9955 380.012 83.7419 363.539 92.8396C357.124 96.3821 349.852 98.0574 342.546 96.9631C316.869 93.1225 317.875 67.6393 305.49 64.3811C303.589 63.8802 301.677 64.0231 299.813 64.6034C295.632 65.9086 291.67 68.8227 287.882 71.026L275.197 78.3035C266.069 83.636 259.841 89.8932 257 100.318C252.904 115.349 261.554 126.7 268.717 139.102L284.418 166.182L313.131 149.605C323.179 143.774 331.315 137.439 343.42 137.666C348.347 137.794 353.177 139.055 357.537 141.355C368.75 147.226 370.329 154.242 376.649 164.579C378.676 167.898 379.353 169.587 382.065 172.425C385.936 173.18 387.068 172.339 390.329 170.456C394.552 168.018 398.792 165.58 403.018 163.14L442.937 140.073C453.214 134.12 464.17 125.964 476.355 125.994C480.819 126.048 485.22 127.054 489.265 128.945C499.507 133.834 503.246 141.015 508.608 150.474C514.099 159.455 514.59 164.852 525.307 157.958C539.093 149.093 553.185 141.883 569.067 150.83C573.243 153.18 575.47 155.645 578.845 158.927L583.3 166.643C584.227 170.51 585.529 174.141 585.713 178.167C585.884 181.922 585.231 185.953 584.049 189.515C577.539 209.119 553.095 212.92 550.801 219.592C550.385 220.798 550.625 222.225 551.013 223.403C552.597 228.187 558.5 236.292 561.081 241.472C564.446 248.222 565.953 255.493 564.363 262.958C561.42 276.753 553.363 281.95 541.95 288.539L526.247 297.59L487.949 319.675C485.022 321.363 482.068 323.015 479.165 324.739C476.242 326.474 474.619 327.567 473.521 330.832C474.433 334.265 476.207 337.06 478.011 340.128C484.962 351.854 490.859 359.818 487.247 374.085C483.178 390.153 471.509 394.335 458.495 401.848L429.973 418.32C434.18 425.868 438.873 433.95 443.289 441.44C448.208 449.785 453.364 460.539 459.841 467.359C465.287 473.098 474.83 476.667 482.725 476.491C486.646 476.4 490.524 475.631 494.184 474.223C503.346 470.65 514.869 462.007 523.936 457.455C528.459 455.185 530.667 448.681 528.406 443.918C524.112 434.872 517.08 426.649 516.837 416.055C516.543 408.207 519.867 398.267 525.736 392.745C533.258 385.666 545.365 379.655 554.43 374.424L588.31 354.894C592.505 352.48 600.527 348.387 603.613 345.098C610.66 337.583 600.638 327.39 597.436 320.247C595.437 315.784 593.788 311.918 593.57 306.89C593.2 298.174 596.32 289.67 602.242 283.262C613.439 271.112 632 269.187 645.323 279.213C647.678 280.985 649.727 283.431 651.901 285.464L656.081 292.703C658.228 301.709 659.874 305.041 657.025 314.623C655.306 320.33 652.05 325.455 647.613 329.439C643.05 333.504 636.177 336.561 630.912 339.756C625.184 343.232 620.677 344.417 624.956 352.028C631.488 363.859 640.207 374.146 637.187 388.558C634.151 403.028 626.299 407.763 614.418 414.596L599.294 423.297L560.869 445.487C557.96 447.16 554.985 448.868 552.085 450.54C548.505 452.604 547.507 452.899 546.345 456.905C547.188 460.525 548.628 462.286 550.325 465.366C555.245 474.303 561.503 481.819 561.032 492.608C560.499 504.734 556.353 510.131 548.44 517.989L400.92 603.16C392.112 605.293 389.98 606.667 380.431 604.43C364.371 600.669 360.005 587.579 352.36 574.834C348.083 567.703 344.519 570.287 338.764 573.666C336.688 574.884 334.323 576.278 332.2 577.519L292.063 600.705C283.213 605.817 272.162 613.079 262.604 616.182C258.106 617.642 252.536 617.191 247.918 616.229C230.391 612.579 225.62 596.932 216.908 583.069C212.044 580.412 210.955 582.421 206.567 584.814C197.008 590.027 188.943 596.869 177.443 596.391C170.796 596.114 163.719 594.121 158.413 589.907C156.302 588.204 153.881 585.42 151.892 583.422ZM490.256 187.645L454.923 208.058C447.385 212.41 438.271 218.387 430.261 221.581C416.4 227.11 400.084 220.385 392.474 207.863C385.007 195.573 382.622 184.576 366.773 193.694L352.418 202.051C347.27 205.046 341.236 208.179 337.2 212.618C329.579 220.999 326.692 233.265 330.361 244.065C332.299 249.762 335.507 254.785 338.501 259.97L348.206 276.752L380.161 332.133C380.755 333.145 381.727 334.796 382.423 335.689C387.775 343.229 394.843 348.459 404.114 350.029C417.854 352.354 426.742 345.543 438.012 338.988C442.424 336.422 447.351 334.078 451.493 331.123C453.824 329.459 455.979 327.424 456.465 324.473C458.476 312.236 438.007 301.735 445.98 278.266C447.933 272.519 451.462 267.48 456.309 263.839C462.489 259.196 469.802 255.563 476.495 251.702L512.364 231.019C517.835 227.865 523.933 224.72 529.054 221.011C535.572 215.853 533.321 208.6 529.48 202.651C525.57 196.596 522.447 189.624 518.319 183.742C510.541 172.656 498.747 182.75 490.256 187.645ZM293.585 311.557L282.997 293.18C276.295 281.568 271.364 271.591 257.107 267.924C243.275 264.366 235.768 269.51 224.563 276.045L209.45 284.725C204.172 287.798 200.291 291.84 202.645 298.777C204.932 304.502 208.998 309.517 211.504 315.126C218.38 330.513 212.982 347.648 198.396 356.174C175.862 369.351 153.008 382.123 130.62 395.534C126.095 398.245 124.316 403.21 125.896 408.276C127.513 413.043 131.074 417.517 133.382 421.992C135.342 425.383 137.577 429.552 139.615 432.741C140.079 433.461 140.561 434.17 141.06 434.865C149.816 443.213 157.898 435.734 166.31 430.837L197.786 412.662L213.528 403.568C218.683 400.594 226.684 395.566 232.336 394.448C241.726 392.592 252.335 395.318 259.511 401.702C262.07 403.956 264.29 406.568 266.102 409.457C267.642 411.872 270.049 416.028 271.379 418.515C279.257 433.256 287.894 425.798 298.376 419.666C304.016 416.367 310.132 413.068 315.699 409.547C325.121 403.658 330.598 391.967 329.733 381.044C329.431 377.24 328.509 373.51 327.004 370.004C324.911 365.133 318.371 354.455 315.47 349.445L293.585 311.557Z" fill="black"/>
</g>
<defs>
<filter id="filter0_n_1236_12387" x="0" y="0" width="658.545" height="617.12" filterUnits="userSpaceOnUse" color-interpolation-filters="sRGB">
<feFlood flood-opacity="0" result="BackgroundImageFix"/>
<feBlend mode="normal" in="SourceGraphic" in2="BackgroundImageFix" result="shape"/>
<feTurbulence type="fractalNoise" baseFrequency="2 2" stitchTiles="stitch" numOctaves="3" result="noise" seed="6080" />
<feColorMatrix in="noise" type="luminanceToAlpha" result="alphaNoise" />
<feComponentTransfer in="alphaNoise" result="coloredNoise1">
<feFuncA type="discrete" tableValues="1 1 1 1 1 1 1 1 1 1 1 1 1 1 1 1 1 1 1 1 1 1 1 1 1 1 1 1 1 1 1 1 1 1 1 1 1 1 1 1 1 1 1 1 1 1 1 1 1 1 1 0 0 0 0 0 0 0 0 0 0 0 0 0 0 0 0 0 0 0 0 0 0 0 0 0 0 0 0 0 0 0 0 0 0 0 0 0 0 0 0 0 0 0 0 0 0 0 0 0 "/>
</feComponentTransfer>
<feComposite operator="in" in2="shape" in="coloredNoise1" result="noise1Clipped" />
<feFlood flood-color="rgba(0, 0, 0, 0.25)" result="color1Flood" />
<feComposite operator="in" in2="noise1Clipped" in="color1Flood" result="color1" />
<feMerge result="effect1_noise_1236_12387">
<feMergeNode in="shape" />
<feMergeNode in="color1" />
</feMerge>
</filter>
</defs>
</svg>
