<svg width="1440" height="2380" viewBox="0 0 1440 2380" fill="none" xmlns="http://www.w3.org/2000/svg">
<g opacity="0.4" filter="url(#filter0_n_848_14011)" style="mix-blend-mode:luminosity">
<path d="M-131.517 2799.88L-152.255 2763.96C-155.923 2748.1 -162.3 2731.47 -164.617 2715.82C-169.858 2680.43 -158.689 2634.94 -140.002 2604.9C-115.569 2564.99 -76.2768 2536.42 -30.7729 2525.48C15.1126 2514.8 63.3692 2523.36 102.783 2549.17C122.586 2561.92 136.805 2577.86 151.271 2597.18C177.203 2631.81 197.437 2708.28 252.518 2698.21C273.977 2694.28 320.717 2664.56 341.774 2652.39L520.492 2549.08C562.361 2524.87 640.833 2473.44 683.894 2463.72C729.713 2453.39 774.752 2460.06 814.973 2484.8C835.136 2497.2 853.006 2515.59 866.335 2535.05C891.781 2572.2 914.767 2647.99 972.017 2635.21C993.448 2630.43 1129.67 2550.23 1148.9 2534.35C1164.96 2521 1178.63 2505.01 1189.33 2487.09C1193.17 2480.7 1196.03 2474.67 1198.98 2467.86C1239.49 2374.58 1184.26 2303.75 1139.03 2225.49L1059.46 2087.91L913.11 2172.4C877.783 2192.84 826.45 2227.73 788.74 2237.62C759.799 2245.21 728.496 2243.21 699.852 2235.42C584.075 2203.93 573.429 2069.48 529.86 2055.02C517.966 2051.08 505.142 2058.26 494.999 2063.96C402.337 2116.01 310.824 2170.59 218.778 2223.77C182.184 2244.9 121.222 2285.19 83.3638 2296.8C50.429 2306.9 17.2319 2307 -15.9036 2297.81C-102.215 2273.86 -128.372 2191.79 -172.044 2123.81C-182.507 2118.57 -191.961 2113.18 -203.59 2118.03C-217.237 2123.72 -236.961 2135.41 -249.499 2143.22C-320.26 2187.28 -375.018 2213.02 -457.927 2176.29C-492.033 2161.18 -496.038 2148.31 -521.894 2123.73L-541.956 2088.98C-545.708 2075.17 -551.951 2057.33 -554.168 2044C-560.169 2006.19 -551.002 1964.78 -531.962 1931.89C-504.095 1883.78 -453.373 1860.3 -407.35 1833.43C-389.23 1822.85 -360.249 1812.28 -368.983 1785.86C-374.985 1767.71 -386.448 1751.96 -395.659 1735.25C-440.716 1663.56 -464.179 1605.55 -424.866 1524.22C-416.69 1507.3 -393.778 1479.74 -378.26 1468.67C-342.171 1442.92 -297.271 1418.99 -258.352 1396.57L-41.0091 1271.04C-29.3744 1264.32 -15.8303 1257.19 -5.01863 1250.43C15.1221 1237.87 55.1665 1225.21 41.4503 1194.09C11.5433 1126.23 -36.2502 1087.62 -32.8845 1008.47C-31.7183 985.619 -26.1171 963.216 -16.3975 942.501C-5.39743 919.816 10.1844 899.642 29.3808 883.296C51.2232 864.859 90.5867 844.561 116.469 829.249C169.925 797.611 225.373 767.499 278.579 735.496L194.911 590.386C155.778 522.468 127.102 452.437 43.3479 431.193C-31.0554 412.312 -74.5353 439.563 -136.259 475.516L-211.273 518.579C-228.393 528.604 -246.491 542.045 -251.419 562.369C-267.126 627.132 -148.987 691.172 -198.406 818.595C-212.064 852.989 -236.232 882.203 -267.47 902.052C-295.819 920.373 -333.946 940.977 -363.538 958.027L-540.912 1060.29C-569.86 1076.99 -615.059 1099.41 -640.413 1119.43C-651.681 1128.33 -659.933 1137.09 -663.102 1151.59C-677.545 1217.76 -562.696 1274.22 -609.132 1404.55C-621.031 1437.95 -644.887 1467.5 -674.214 1487.21C-712.167 1512.73 -758.875 1523.82 -804.084 1514.84C-834.72 1508.75 -864.087 1495.72 -886.768 1473.98C-895.435 1465.68 -903.076 1456.12 -911.962 1448.11L-932.701 1412.19C-936.397 1396.56 -942.878 1380.43 -945.002 1364.95C-950.078 1327.96 -939.891 1287 -921.924 1255.5C-887.774 1194.4 -818.86 1175.42 -765.482 1137.07C-758.674 1132.19 -754.728 1120 -757.825 1112.65C-789.329 1037.92 -849.49 987.845 -831.979 897.802C-828.252 877.784 -821.075 858.555 -810.763 840.984C-779.671 787.81 -699.941 750.773 -646.131 719.706L-427.304 593.595C-403.593 579.923 -373.072 564.15 -352.111 547.947C-333.535 533.578 -365.156 484.259 -374.026 471.091C-421.733 400.254 -443.668 334.535 -400.46 254.212C-385.588 226.58 -371.288 222.055 -353.455 200.177L433.564 -254.209C446.29 -257.472 466.91 -264.625 479.335 -266.183C534.887 -273.595 602.255 -248.892 635.724 -203.087C651.499 -181.496 674.125 -141.452 686.742 -117.862C719.867 -55.945 734.301 -79.4517 784.045 -106.007C794.045 -111.34 805.868 -118.606 816.25 -124.618L1001.64 -231.846C1048.81 -259.113 1136.93 -316.418 1185.04 -326.572C1224.22 -334.845 1267.45 -326.485 1302.01 -306.903C1350.65 -279.362 1374.06 -229.456 1400.69 -182.816C1407.81 -170.329 1414.5 -156.149 1425.65 -146.71C1431.45 -141.799 1438.23 -140.595 1445.59 -140.197L1447.55 -140.977C1486.78 -156.724 1526.3 -189.59 1565.53 -205.748C1607.45 -223.017 1656.86 -222.445 1698.33 -204.793C1740.08 -187.916 1741.47 -175.556 1769.97 -150.658L1792.47 -111.673C1794.06 -103.737 1797.01 -95.9845 1798.95 -88.1102C1806.73 -56.362 1807.31 -27.5825 1798.29 4.0478C1785.25 49.811 1754.05 86.87 1712.44 109.522C1681.25 126.487 1642.8 133.726 1607.59 128.389C1466.74 107.052 1475.74 -28.4563 1408.13 -46.5396C1394.48 -50.1866 1383.3 -47.3785 1370.54 -42.3167C1356.96 -36.9391 1343.89 -28.1435 1331.23 -20.8339L1266.45 16.6358C1179.02 67.1849 1092.18 119.467 1003.81 168.269C969.406 187.272 930.395 196.259 891.202 190.389C753.468 169.787 758.861 33.0883 692.424 15.6104C682.23 12.9234 671.97 13.6898 661.974 16.8032C639.542 23.8045 618.291 39.4362 597.972 51.2554L529.928 90.2936C480.963 118.899 447.552 152.464 432.311 208.385C410.338 289.017 456.739 349.904 495.168 416.434L579.389 561.7L733.415 472.773C787.315 441.495 830.959 407.514 895.893 408.732C922.325 409.419 948.233 416.183 971.62 428.52C1031.77 460.014 1040.24 497.65 1074.14 553.1C1085.02 570.901 1088.65 579.965 1103.19 595.189C1123.96 599.236 1130.03 594.725 1147.52 584.626C1170.18 571.547 1192.92 558.469 1215.59 545.382L1429.73 421.642C1484.86 389.71 1543.63 345.955 1608.99 346.116C1632.94 346.407 1656.55 351.806 1678.24 361.95C1733.19 388.177 1753.24 426.694 1782.01 477.433C1811.46 525.611 1814.09 554.561 1871.58 517.583C1945.54 470.028 2021.13 431.35 2106.33 479.343C2128.73 491.952 2140.67 505.174 2158.78 522.78L2182.67 564.168C2187.64 584.914 2194.63 604.39 2195.62 625.986C2196.53 646.134 2193.03 667.757 2186.69 686.862C2151.77 792.025 2020.65 812.412 2008.34 848.202C2006.11 854.673 2007.39 862.326 2009.48 868.649C2017.97 894.309 2049.64 937.787 2063.48 965.572C2081.54 1001.78 2089.62 1040.79 2081.09 1080.83C2065.31 1154.83 2022.08 1182.71 1960.86 1218.05L1876.63 1266.61L1671.19 1385.08C1655.48 1394.13 1639.64 1402.99 1624.06 1412.24C1608.38 1421.55 1599.68 1427.41 1593.79 1444.92C1598.68 1463.34 1608.2 1478.33 1617.88 1494.79C1655.16 1557.69 1686.8 1600.41 1667.42 1676.94C1645.59 1763.14 1583 1785.57 1513.18 1825.87L1360.19 1914.23C1382.75 1954.72 1407.93 1998.08 1431.61 2038.25C1458.01 2083.02 1485.66 2140.71 1520.41 2177.29C1549.62 2208.08 1600.81 2227.22 1643.16 2226.28C1664.2 2225.79 1685 2221.67 1704.63 2214.11C1753.78 2194.94 1815.59 2148.58 1864.23 2124.17C1888.49 2111.98 1900.33 2077.1 1888.2 2051.55C1865.17 2003.03 1827.45 1958.91 1826.15 1902.08C1824.57 1859.98 1842.4 1806.66 1873.88 1777.04C1914.23 1739.07 1979.18 1706.82 2027.81 1678.76L2209.55 1574C2232.05 1561.05 2275.09 1539.09 2291.64 1521.45C2329.44 1481.14 2275.68 1426.46 2258.5 1388.14C2247.78 1364.2 2238.94 1343.46 2237.77 1316.5C2235.78 1269.74 2252.52 1224.12 2284.28 1189.75C2344.35 1124.57 2443.91 1114.24 2515.38 1168.03C2528.01 1177.53 2539 1190.65 2550.67 1201.56L2573.09 1240.39C2584.61 1288.7 2593.43 1306.58 2578.15 1357.97C2568.93 1388.59 2551.47 1416.08 2527.66 1437.45C2503.19 1459.26 2466.32 1475.65 2438.07 1492.8C2407.35 1511.44 2383.17 1517.8 2406.13 1558.62C2441.17 1622.09 2487.94 1677.27 2471.74 1754.58C2455.45 1832.2 2413.33 1857.6 2349.6 1894.25L2268.47 1940.93L2062.35 2059.97C2046.74 2068.94 2030.78 2078.1 2015.23 2087.07C1996.02 2098.14 1990.67 2099.73 1984.44 2121.21C1988.96 2140.63 1996.68 2150.08 2005.78 2166.6C2032.18 2214.54 2065.75 2254.86 2063.22 2312.73C2060.36 2377.78 2038.12 2406.73 1995.68 2448.89L1204.34 2905.76C1157.09 2917.21 1145.65 2924.58 1094.43 2912.58C1008.28 2892.4 984.857 2822.18 943.85 2753.82C920.905 2715.56 901.788 2729.42 870.919 2747.55C859.781 2754.08 847.093 2761.56 835.705 2768.22L620.402 2892.6C572.925 2920.02 513.646 2958.97 462.372 2975.62C438.243 2983.45 408.366 2981.03 383.592 2975.87C289.574 2956.29 263.983 2872.36 217.25 2797.99C191.155 2783.74 185.317 2794.52 161.775 2807.35C110.502 2835.32 67.236 2872.02 5.54639 2869.45C-30.1109 2867.97 -68.0719 2857.28 -96.5352 2834.67C-107.857 2825.54 -120.845 2810.6 -131.517 2799.88ZM1683.56 676.833L1494.03 786.332C1453.59 809.678 1404.7 841.741 1361.73 858.874C1287.38 888.532 1199.85 852.459 1159.03 785.288C1118.98 719.361 1106.18 660.369 1021.17 709.278L944.161 754.106C916.543 770.175 884.176 786.979 862.528 810.796C821.646 855.75 806.158 921.548 825.842 979.484C836.234 1010.04 853.444 1036.99 869.503 1064.8L921.567 1154.83L1092.98 1451.9C1096.17 1457.33 1101.38 1466.19 1105.12 1470.98C1133.82 1511.43 1171.74 1539.48 1221.47 1547.9C1295.17 1560.37 1342.85 1523.84 1403.31 1488.68C1426.98 1474.91 1453.41 1462.33 1475.62 1446.48C1488.13 1437.56 1499.69 1426.64 1502.29 1410.82C1513.08 1345.17 1403.28 1288.84 1446.05 1162.94C1456.53 1132.12 1475.46 1105.09 1501.46 1085.55C1534.61 1060.65 1573.84 1041.16 1609.74 1020.45L1802.16 909.503C1831.5 892.584 1864.21 875.71 1891.68 855.818C1926.65 828.146 1914.57 789.237 1893.97 757.33C1872.99 724.847 1856.24 687.449 1834.1 655.894C1792.37 596.426 1729.11 650.571 1683.56 676.833ZM628.562 1341.53L571.766 1242.95C535.815 1180.66 509.366 1127.14 432.887 1107.47C358.687 1088.38 318.416 1115.98 258.311 1151.03L177.242 1197.59C148.927 1214.08 128.111 1235.76 140.737 1272.97C153.005 1303.68 174.819 1330.59 188.261 1360.67C225.144 1443.21 196.189 1535.13 117.943 1580.87C-2.93248 1651.55 -125.531 1720.06 -245.625 1792C-269.897 1806.55 -279.438 1833.18 -270.962 1860.36C-262.293 1885.93 -243.188 1909.92 -230.807 1933.93C-220.295 1952.12 -208.306 1974.49 -197.37 1991.59C-194.882 1995.45 -192.298 1999.25 -189.618 2002.99C-142.65 2047.77 -99.2964 2007.65 -54.1747 1981.38L114.67 1883.88L199.115 1835.1C226.769 1819.15 269.689 1792.17 300.009 1786.18C350.378 1776.22 407.291 1790.85 445.78 1825.09C459.508 1837.18 471.419 1851.19 481.137 1866.69C489.396 1879.65 502.312 1901.94 509.443 1915.28C551.704 1994.35 598.034 1954.35 654.264 1921.45C684.519 1903.76 717.327 1886.06 747.188 1867.17C797.73 1835.58 827.112 1772.87 822.474 1714.27C820.854 1693.87 815.908 1673.86 807.834 1655.05C796.608 1628.92 761.524 1571.64 745.959 1544.77L628.562 1341.53Z" fill="url(#paint0_linear_848_14011)"/>
<path d="M-131.517 2799.88L-152.255 2763.96C-155.923 2748.1 -162.3 2731.47 -164.617 2715.82C-169.858 2680.43 -158.689 2634.94 -140.002 2604.9C-115.569 2564.99 -76.2768 2536.42 -30.7729 2525.48C15.1126 2514.8 63.3692 2523.36 102.783 2549.17C122.586 2561.92 136.805 2577.86 151.271 2597.18C177.203 2631.81 197.437 2708.28 252.518 2698.21C273.977 2694.28 320.717 2664.56 341.774 2652.39L520.492 2549.08C562.361 2524.87 640.833 2473.44 683.894 2463.72C729.713 2453.39 774.752 2460.06 814.973 2484.8C835.136 2497.2 853.006 2515.59 866.335 2535.05C891.781 2572.2 914.767 2647.99 972.017 2635.21C993.448 2630.43 1129.67 2550.23 1148.9 2534.35C1164.96 2521 1178.63 2505.01 1189.33 2487.09C1193.17 2480.7 1196.03 2474.67 1198.98 2467.86C1239.49 2374.58 1184.26 2303.75 1139.03 2225.49L1059.46 2087.91L913.11 2172.4C877.783 2192.84 826.45 2227.73 788.74 2237.62C759.799 2245.21 728.496 2243.21 699.852 2235.42C584.075 2203.93 573.429 2069.48 529.86 2055.02C517.966 2051.08 505.142 2058.26 494.999 2063.96C402.337 2116.01 310.824 2170.59 218.778 2223.77C182.184 2244.9 121.222 2285.19 83.3638 2296.8C50.429 2306.9 17.2319 2307 -15.9036 2297.81C-102.215 2273.86 -128.372 2191.79 -172.044 2123.81C-182.507 2118.57 -191.961 2113.18 -203.59 2118.03C-217.237 2123.72 -236.961 2135.41 -249.499 2143.22C-320.26 2187.28 -375.018 2213.02 -457.927 2176.29C-492.033 2161.18 -496.038 2148.31 -521.894 2123.73L-541.956 2088.98C-545.708 2075.17 -551.951 2057.33 -554.168 2044C-560.169 2006.19 -551.002 1964.78 -531.962 1931.89C-504.095 1883.78 -453.373 1860.3 -407.35 1833.43C-389.23 1822.85 -360.249 1812.28 -368.983 1785.86C-374.985 1767.71 -386.448 1751.96 -395.659 1735.25C-440.716 1663.56 -464.179 1605.55 -424.866 1524.22C-416.69 1507.3 -393.778 1479.74 -378.26 1468.67C-342.171 1442.92 -297.271 1418.99 -258.352 1396.57L-41.0091 1271.04C-29.3744 1264.32 -15.8303 1257.19 -5.01863 1250.43C15.1221 1237.87 55.1665 1225.21 41.4503 1194.09C11.5433 1126.23 -36.2502 1087.62 -32.8845 1008.47C-31.7183 985.619 -26.1171 963.216 -16.3975 942.501C-5.39743 919.816 10.1844 899.642 29.3808 883.296C51.2232 864.859 90.5867 844.561 116.469 829.249C169.925 797.611 225.373 767.499 278.579 735.496L194.911 590.386C155.778 522.468 127.102 452.437 43.3479 431.193C-31.0554 412.312 -74.5353 439.563 -136.259 475.516L-211.273 518.579C-228.393 528.604 -246.491 542.045 -251.419 562.369C-267.126 627.132 -148.987 691.172 -198.406 818.595C-212.064 852.989 -236.232 882.203 -267.47 902.052C-295.819 920.373 -333.946 940.977 -363.538 958.027L-540.912 1060.29C-569.86 1076.99 -615.059 1099.41 -640.413 1119.43C-651.681 1128.33 -659.933 1137.09 -663.102 1151.59C-677.545 1217.76 -562.696 1274.22 -609.132 1404.55C-621.031 1437.95 -644.887 1467.5 -674.214 1487.21C-712.167 1512.73 -758.875 1523.82 -804.084 1514.84C-834.72 1508.75 -864.087 1495.72 -886.768 1473.98C-895.435 1465.68 -903.076 1456.12 -911.962 1448.11L-932.701 1412.19C-936.397 1396.56 -942.878 1380.43 -945.002 1364.95C-950.078 1327.96 -939.891 1287 -921.924 1255.5C-887.774 1194.4 -818.86 1175.42 -765.482 1137.07C-758.674 1132.19 -754.728 1120 -757.825 1112.65C-789.329 1037.92 -849.49 987.845 -831.979 897.802C-828.252 877.784 -821.075 858.555 -810.763 840.984C-779.671 787.81 -699.941 750.773 -646.131 719.706L-427.304 593.595C-403.593 579.923 -373.072 564.15 -352.111 547.947C-333.535 533.578 -365.156 484.259 -374.026 471.091C-421.733 400.254 -443.668 334.535 -400.46 254.212C-385.588 226.58 -371.288 222.055 -353.455 200.177L433.564 -254.209C446.29 -257.472 466.91 -264.625 479.335 -266.183C534.887 -273.595 602.255 -248.892 635.724 -203.087C651.499 -181.496 674.125 -141.452 686.742 -117.862C719.867 -55.945 734.301 -79.4517 784.045 -106.007C794.045 -111.34 805.868 -118.606 816.25 -124.618L1001.64 -231.846C1048.81 -259.113 1136.93 -316.418 1185.04 -326.572C1224.22 -334.845 1267.45 -326.485 1302.01 -306.903C1350.65 -279.362 1374.06 -229.456 1400.69 -182.816C1407.81 -170.329 1414.5 -156.149 1425.65 -146.71C1431.45 -141.799 1438.23 -140.595 1445.59 -140.197L1447.55 -140.977C1486.78 -156.724 1526.3 -189.59 1565.53 -205.748C1607.45 -223.017 1656.86 -222.445 1698.33 -204.793C1740.08 -187.916 1741.47 -175.556 1769.97 -150.658L1792.47 -111.673C1794.06 -103.737 1797.01 -95.9845 1798.95 -88.1102C1806.73 -56.362 1807.31 -27.5825 1798.29 4.0478C1785.25 49.811 1754.05 86.87 1712.44 109.522C1681.25 126.487 1642.8 133.726 1607.59 128.389C1466.74 107.052 1475.74 -28.4563 1408.13 -46.5396C1394.48 -50.1866 1383.3 -47.3785 1370.54 -42.3167C1356.96 -36.9391 1343.89 -28.1435 1331.23 -20.8339L1266.45 16.6358C1179.02 67.1849 1092.18 119.467 1003.81 168.269C969.406 187.272 930.395 196.259 891.202 190.389C753.468 169.787 758.861 33.0883 692.424 15.6104C682.23 12.9234 671.97 13.6898 661.974 16.8032C639.542 23.8045 618.291 39.4362 597.972 51.2554L529.928 90.2936C480.963 118.899 447.552 152.464 432.311 208.385C410.338 289.017 456.739 349.904 495.168 416.434L579.389 561.7L733.415 472.773C787.315 441.495 830.959 407.514 895.893 408.732C922.325 409.419 948.233 416.183 971.62 428.52C1031.77 460.014 1040.24 497.65 1074.14 553.1C1085.02 570.901 1088.65 579.965 1103.19 595.189C1123.96 599.236 1130.03 594.725 1147.52 584.626C1170.18 571.547 1192.92 558.469 1215.59 545.382L1429.73 421.642C1484.86 389.71 1543.63 345.955 1608.99 346.116C1632.94 346.407 1656.55 351.806 1678.24 361.95C1733.19 388.177 1753.24 426.694 1782.01 477.433C1811.46 525.611 1814.09 554.561 1871.58 517.583C1945.54 470.028 2021.13 431.35 2106.33 479.343C2128.73 491.952 2140.67 505.174 2158.78 522.78L2182.67 564.168C2187.64 584.914 2194.63 604.39 2195.62 625.986C2196.53 646.134 2193.03 667.757 2186.69 686.862C2151.77 792.025 2020.65 812.412 2008.34 848.202C2006.11 854.673 2007.39 862.326 2009.48 868.649C2017.97 894.309 2049.64 937.787 2063.48 965.572C2081.54 1001.78 2089.62 1040.79 2081.09 1080.83C2065.31 1154.83 2022.08 1182.71 1960.86 1218.05L1876.63 1266.61L1671.19 1385.08C1655.48 1394.13 1639.64 1402.99 1624.06 1412.24C1608.38 1421.55 1599.68 1427.41 1593.79 1444.92C1598.68 1463.34 1608.2 1478.33 1617.88 1494.79C1655.16 1557.69 1686.8 1600.41 1667.42 1676.94C1645.59 1763.14 1583 1785.57 1513.18 1825.87L1360.19 1914.23C1382.75 1954.72 1407.93 1998.08 1431.61 2038.25C1458.01 2083.02 1485.66 2140.71 1520.41 2177.29C1549.62 2208.08 1600.81 2227.22 1643.16 2226.28C1664.2 2225.79 1685 2221.67 1704.63 2214.11C1753.78 2194.94 1815.59 2148.58 1864.23 2124.17C1888.49 2111.98 1900.33 2077.1 1888.2 2051.55C1865.17 2003.03 1827.45 1958.91 1826.15 1902.08C1824.57 1859.98 1842.4 1806.66 1873.88 1777.04C1914.23 1739.07 1979.18 1706.82 2027.81 1678.76L2209.55 1574C2232.05 1561.05 2275.09 1539.09 2291.64 1521.45C2329.44 1481.14 2275.68 1426.46 2258.5 1388.14C2247.78 1364.2 2238.94 1343.46 2237.77 1316.5C2235.78 1269.74 2252.52 1224.12 2284.28 1189.75C2344.35 1124.57 2443.91 1114.24 2515.38 1168.03C2528.01 1177.53 2539 1190.65 2550.67 1201.56L2573.09 1240.39C2584.61 1288.7 2593.43 1306.58 2578.15 1357.97C2568.93 1388.59 2551.47 1416.08 2527.66 1437.45C2503.19 1459.26 2466.32 1475.65 2438.07 1492.8C2407.35 1511.44 2383.17 1517.8 2406.13 1558.62C2441.17 1622.09 2487.94 1677.27 2471.74 1754.58C2455.45 1832.2 2413.33 1857.6 2349.6 1894.25L2268.47 1940.93L2062.35 2059.97C2046.74 2068.94 2030.78 2078.1 2015.23 2087.07C1996.02 2098.14 1990.67 2099.73 1984.44 2121.21C1988.96 2140.63 1996.68 2150.08 2005.78 2166.6C2032.18 2214.54 2065.75 2254.86 2063.22 2312.73C2060.36 2377.78 2038.12 2406.73 1995.68 2448.89L1204.34 2905.76C1157.09 2917.21 1145.65 2924.58 1094.43 2912.58C1008.28 2892.4 984.857 2822.18 943.85 2753.82C920.905 2715.56 901.788 2729.42 870.919 2747.55C859.781 2754.08 847.093 2761.56 835.705 2768.22L620.402 2892.6C572.925 2920.02 513.646 2958.97 462.372 2975.62C438.243 2983.45 408.366 2981.03 383.592 2975.87C289.574 2956.29 263.983 2872.36 217.25 2797.99C191.155 2783.74 185.317 2794.52 161.775 2807.35C110.502 2835.32 67.236 2872.02 5.54639 2869.45C-30.1109 2867.97 -68.0719 2857.28 -96.5352 2834.67C-107.857 2825.54 -120.845 2810.6 -131.517 2799.88ZM1683.56 676.833L1494.03 786.332C1453.59 809.678 1404.7 841.741 1361.73 858.874C1287.38 888.532 1199.85 852.459 1159.03 785.288C1118.98 719.361 1106.18 660.369 1021.17 709.278L944.161 754.106C916.543 770.175 884.176 786.979 862.528 810.796C821.646 855.75 806.158 921.548 825.842 979.484C836.234 1010.04 853.444 1036.99 869.503 1064.8L921.567 1154.83L1092.98 1451.9C1096.17 1457.33 1101.38 1466.19 1105.12 1470.98C1133.82 1511.43 1171.74 1539.48 1221.47 1547.9C1295.17 1560.37 1342.85 1523.84 1403.31 1488.68C1426.98 1474.91 1453.41 1462.33 1475.62 1446.48C1488.13 1437.56 1499.69 1426.64 1502.29 1410.82C1513.08 1345.17 1403.28 1288.84 1446.05 1162.94C1456.53 1132.12 1475.46 1105.09 1501.46 1085.55C1534.61 1060.65 1573.84 1041.16 1609.74 1020.45L1802.16 909.503C1831.5 892.584 1864.21 875.71 1891.68 855.818C1926.65 828.146 1914.57 789.237 1893.97 757.33C1872.99 724.847 1856.24 687.449 1834.1 655.894C1792.37 596.426 1729.11 650.571 1683.56 676.833ZM628.562 1341.53L571.766 1242.95C535.815 1180.66 509.366 1127.14 432.887 1107.47C358.687 1088.38 318.416 1115.98 258.311 1151.03L177.242 1197.59C148.927 1214.08 128.111 1235.76 140.737 1272.97C153.005 1303.68 174.819 1330.59 188.261 1360.67C225.144 1443.21 196.189 1535.13 117.943 1580.87C-2.93248 1651.55 -125.531 1720.06 -245.625 1792C-269.897 1806.55 -279.438 1833.18 -270.962 1860.36C-262.293 1885.93 -243.188 1909.92 -230.807 1933.93C-220.295 1952.12 -208.306 1974.49 -197.37 1991.59C-194.882 1995.45 -192.298 1999.25 -189.618 2002.99C-142.65 2047.77 -99.2964 2007.65 -54.1747 1981.38L114.67 1883.88L199.115 1835.1C226.769 1819.15 269.689 1792.17 300.009 1786.18C350.378 1776.22 407.291 1790.85 445.78 1825.09C459.508 1837.18 471.419 1851.19 481.137 1866.69C489.396 1879.65 502.312 1901.94 509.443 1915.28C551.704 1994.35 598.034 1954.35 654.264 1921.45C684.519 1903.76 717.327 1886.06 747.188 1867.17C797.73 1835.58 827.112 1772.87 822.474 1714.27C820.854 1693.87 815.908 1673.86 807.834 1655.05C796.608 1628.92 761.524 1571.64 745.959 1544.77L628.562 1341.53Z" fill="url(#paint1_linear_848_14011)"/>
</g>
<defs>
<filter id="filter0_n_848_14011" x="-946.305" y="-329.747" width="3532.61" height="3310.4" filterUnits="userSpaceOnUse" color-interpolation-filters="sRGB">
<feFlood flood-opacity="0" result="BackgroundImageFix"/>
<feBlend mode="normal" in="SourceGraphic" in2="BackgroundImageFix" result="shape"/>
<feTurbulence type="fractalNoise" baseFrequency="2 2" stitchTiles="stitch" numOctaves="3" result="noise" seed="2997" />
<feColorMatrix in="noise" type="luminanceToAlpha" result="alphaNoise" />
<feComponentTransfer in="alphaNoise" result="coloredNoise1">
<feFuncA type="discrete" tableValues="1 1 1 1 1 1 1 1 1 1 1 1 1 1 1 1 1 1 1 1 1 1 1 1 1 1 1 1 1 1 1 1 1 1 1 1 1 1 1 1 1 1 1 1 1 1 1 1 1 1 1 0 0 0 0 0 0 0 0 0 0 0 0 0 0 0 0 0 0 0 0 0 0 0 0 0 0 0 0 0 0 0 0 0 0 0 0 0 0 0 0 0 0 0 0 0 0 0 0 0 "/>
</feComponentTransfer>
<feComposite operator="in" in2="shape" in="coloredNoise1" result="noise1Clipped" />
<feFlood flood-color="rgba(0, 0, 0, 0.25)" result="color1Flood" />
<feComposite operator="in" in2="noise1Clipped" in="color1Flood" result="color1" />
<feMerge result="effect1_noise_848_14011">
<feMergeNode in="shape" />
<feMergeNode in="color1" />
</feMerge>
</filter>
<linearGradient id="paint0_linear_848_14011" x1="39.1595" y1="8.37067" x2="39.1595" y2="901.521" gradientUnits="userSpaceOnUse">
<stop stop-color="#FFC74F"/>
<stop offset="1" stop-color="#FFC74F" stop-opacity="0"/>
</linearGradient>
<linearGradient id="paint1_linear_848_14011" x1="39.1596" y1="1698.12" x2="39.1596" y2="2502.76" gradientUnits="userSpaceOnUse">
<stop stop-color="#FF8A4C" stop-opacity="0"/>
<stop offset="1" stop-color="#FF8A4C"/>
</linearGradient>
</defs>
</svg>
